<svg xmlns="http://www.w3.org/2000/svg" version="1.1" xmlns:xlink="http://www.w3.org/1999/xlink" xmlns:svgjs="http://svgjs.dev/svgjs" viewBox="0 0 800 800"><defs><linearGradient gradientTransform="rotate(270)" x1="50%" y1="0%" x2="50%" y2="100%" id="sssquiggly-grad"><stop stop-color="hsla(335, 86%, 56%, 1.00)" stop-opacity="1" offset="0%"></stop><stop stop-color="hsla(335, 40%, 80%, 1.00)" stop-opacity="1" offset="100%"></stop></linearGradient></defs><g stroke-width="2.5" stroke="url(#sssquiggly-grad)" fill="none" stroke-linecap="round" transform="matrix(1,0,0,1,-5,277.4623851776123)"><path d="M10,10C23.06818181818182,12.083333333333334,44.507575757575765,26.458333333333336,72.72727272727273,20C100.9469696969697,13.541666666666666,115.15151515151517,-20.791666666666668,145.45454545454547,-21C175.75757575757575,-21.208333333333332,187.87878787878788,17.541666666666668,218.1818181818182,19C248.4848484848485,20.458333333333332,260.6060606060606,-17.958333333333332,290.90909090909093,-14C321.21212121212125,-10.041666666666668,333.33333333333337,35.916666666666664,363.6363636363637,38C393.939393939394,40.083333333333336,406.06060606060606,-1.291666666666667,436.3636363636364,-4C466.6666666666667,-6.708333333333333,478.7878787878788,23.125,509.0909090909091,25C539.3939393939395,26.875,551.5151515151515,3.125,581.8181818181819,5C612.1212121212122,6.875,624.2424242424242,34,654.5454545454546,34C684.848484848485,34,696.969696969697,4.375,727.2727272727274,5C757.5757575757577,5.625,784.848484848485,30.333333333333336,800.0000000000001,37"></path><path d="M10,10C23.06818181818182,12.083333333333334,44.507575757575765,26.458333333333336,72.72727272727273,20C100.9469696969697,13.541666666666666,115.15151515151517,-20.791666666666668,145.45454545454547,-21C175.75757575757575,-21.208333333333332,187.87878787878788,17.541666666666668,218.1818181818182,19C248.4848484848485,20.458333333333332,260.6060606060606,-17.958333333333332,290.90909090909093,-14C321.21212121212125,-10.041666666666668,333.33333333333337,35.916666666666664,363.6363636363637,38C393.939393939394,40.083333333333336,406.06060606060606,-1.291666666666667,436.3636363636364,-4C466.6666666666667,-6.708333333333333,478.7878787878788,23.125,509.0909090909091,25C539.3939393939395,26.875,551.5151515151515,3.125,581.8181818181819,5C612.1212121212122,6.875,624.2424242424242,34,654.5454545454546,34C684.848484848485,34,696.969696969697,4.375,727.2727272727274,5C757.5757575757577,5.625,784.848484848485,30.333333333333336,800.0000000000001,37" transform="matrix(1,0,0,1,0,228)"></path><path d="M10,10C23.06818181818182,12.083333333333334,44.507575757575765,26.458333333333336,72.72727272727273,20C100.9469696969697,13.541666666666666,115.15151515151517,-20.791666666666668,145.45454545454547,-21C175.75757575757575,-21.208333333333332,187.87878787878788,17.541666666666668,218.1818181818182,19C248.4848484848485,20.458333333333332,260.6060606060606,-17.958333333333332,290.90909090909093,-14C321.21212121212125,-10.041666666666668,333.33333333333337,35.916666666666664,363.6363636363637,38C393.939393939394,40.083333333333336,406.06060606060606,-1.291666666666667,436.3636363636364,-4C466.6666666666667,-6.708333333333333,478.7878787878788,23.125,509.0909090909091,25C539.3939393939395,26.875,551.5151515151515,3.125,581.8181818181819,5C612.1212121212122,6.875,624.2424242424242,34,654.5454545454546,34C684.848484848485,34,696.969696969697,4.375,727.2727272727274,5C757.5757575757577,5.625,784.848484848485,30.333333333333336,800.0000000000001,37" transform="matrix(1,0,0,1,0,216)"></path><path d="M10,10C23.06818181818182,12.083333333333334,44.507575757575765,26.458333333333336,72.72727272727273,20C100.9469696969697,13.541666666666666,115.15151515151517,-20.791666666666668,145.45454545454547,-21C175.75757575757575,-21.208333333333332,187.87878787878788,17.541666666666668,218.1818181818182,19C248.4848484848485,20.458333333333332,260.6060606060606,-17.958333333333332,290.90909090909093,-14C321.21212121212125,-10.041666666666668,333.33333333333337,35.916666666666664,363.6363636363637,38C393.939393939394,40.083333333333336,406.06060606060606,-1.291666666666667,436.3636363636364,-4C466.6666666666667,-6.708333333333333,478.7878787878788,23.125,509.0909090909091,25C539.3939393939395,26.875,551.5151515151515,3.125,581.8181818181819,5C612.1212121212122,6.875,624.2424242424242,34,654.5454545454546,34C684.848484848485,34,696.969696969697,4.375,727.2727272727274,5C757.5757575757577,5.625,784.848484848485,30.333333333333336,800.0000000000001,37" transform="matrix(1,0,0,1,0,204)"></path><path d="M10,10C23.06818181818182,12.083333333333334,44.507575757575765,26.458333333333336,72.72727272727273,20C100.9469696969697,13.541666666666666,115.15151515151517,-20.791666666666668,145.45454545454547,-21C175.75757575757575,-21.208333333333332,187.87878787878788,17.541666666666668,218.1818181818182,19C248.4848484848485,20.458333333333332,260.6060606060606,-17.958333333333332,290.90909090909093,-14C321.21212121212125,-10.041666666666668,333.33333333333337,35.916666666666664,363.6363636363637,38C393.939393939394,40.083333333333336,406.06060606060606,-1.291666666666667,436.3636363636364,-4C466.6666666666667,-6.708333333333333,478.7878787878788,23.125,509.0909090909091,25C539.3939393939395,26.875,551.5151515151515,3.125,581.8181818181819,5C612.1212121212122,6.875,624.2424242424242,34,654.5454545454546,34C684.848484848485,34,696.969696969697,4.375,727.2727272727274,5C757.5757575757577,5.625,784.848484848485,30.333333333333336,800.0000000000001,37" transform="matrix(1,0,0,1,0,192)"></path><path d="M10,10C23.06818181818182,12.083333333333334,44.507575757575765,26.458333333333336,72.72727272727273,20C100.9469696969697,13.541666666666666,115.15151515151517,-20.791666666666668,145.45454545454547,-21C175.75757575757575,-21.208333333333332,187.87878787878788,17.541666666666668,218.1818181818182,19C248.4848484848485,20.458333333333332,260.6060606060606,-17.958333333333332,290.90909090909093,-14C321.21212121212125,-10.041666666666668,333.33333333333337,35.916666666666664,363.6363636363637,38C393.939393939394,40.083333333333336,406.06060606060606,-1.291666666666667,436.3636363636364,-4C466.6666666666667,-6.708333333333333,478.7878787878788,23.125,509.0909090909091,25C539.3939393939395,26.875,551.5151515151515,3.125,581.8181818181819,5C612.1212121212122,6.875,624.2424242424242,34,654.5454545454546,34C684.848484848485,34,696.969696969697,4.375,727.2727272727274,5C757.5757575757577,5.625,784.848484848485,30.333333333333336,800.0000000000001,37" transform="matrix(1,0,0,1,0,180)"></path><path d="M10,10C23.06818181818182,12.083333333333334,44.507575757575765,26.458333333333336,72.72727272727273,20C100.9469696969697,13.541666666666666,115.15151515151517,-20.791666666666668,145.45454545454547,-21C175.75757575757575,-21.208333333333332,187.87878787878788,17.541666666666668,218.1818181818182,19C248.4848484848485,20.458333333333332,260.6060606060606,-17.958333333333332,290.90909090909093,-14C321.21212121212125,-10.041666666666668,333.33333333333337,35.916666666666664,363.6363636363637,38C393.939393939394,40.083333333333336,406.06060606060606,-1.291666666666667,436.3636363636364,-4C466.6666666666667,-6.708333333333333,478.7878787878788,23.125,509.0909090909091,25C539.3939393939395,26.875,551.5151515151515,3.125,581.8181818181819,5C612.1212121212122,6.875,624.2424242424242,34,654.5454545454546,34C684.848484848485,34,696.969696969697,4.375,727.2727272727274,5C757.5757575757577,5.625,784.848484848485,30.333333333333336,800.0000000000001,37" transform="matrix(1,0,0,1,0,168)"></path><path d="M10,10C23.06818181818182,12.083333333333334,44.507575757575765,26.458333333333336,72.72727272727273,20C100.9469696969697,13.541666666666666,115.15151515151517,-20.791666666666668,145.45454545454547,-21C175.75757575757575,-21.208333333333332,187.87878787878788,17.541666666666668,218.1818181818182,19C248.4848484848485,20.458333333333332,260.6060606060606,-17.958333333333332,290.90909090909093,-14C321.21212121212125,-10.041666666666668,333.33333333333337,35.916666666666664,363.6363636363637,38C393.939393939394,40.083333333333336,406.06060606060606,-1.291666666666667,436.3636363636364,-4C466.6666666666667,-6.708333333333333,478.7878787878788,23.125,509.0909090909091,25C539.3939393939395,26.875,551.5151515151515,3.125,581.8181818181819,5C612.1212121212122,6.875,624.2424242424242,34,654.5454545454546,34C684.848484848485,34,696.969696969697,4.375,727.2727272727274,5C757.5757575757577,5.625,784.848484848485,30.333333333333336,800.0000000000001,37" transform="matrix(1,0,0,1,0,156)"></path><path d="M10,10C23.06818181818182,12.083333333333334,44.507575757575765,26.458333333333336,72.72727272727273,20C100.9469696969697,13.541666666666666,115.15151515151517,-20.791666666666668,145.45454545454547,-21C175.75757575757575,-21.208333333333332,187.87878787878788,17.541666666666668,218.1818181818182,19C248.4848484848485,20.458333333333332,260.6060606060606,-17.958333333333332,290.90909090909093,-14C321.21212121212125,-10.041666666666668,333.33333333333337,35.916666666666664,363.6363636363637,38C393.939393939394,40.083333333333336,406.06060606060606,-1.291666666666667,436.3636363636364,-4C466.6666666666667,-6.708333333333333,478.7878787878788,23.125,509.0909090909091,25C539.3939393939395,26.875,551.5151515151515,3.125,581.8181818181819,5C612.1212121212122,6.875,624.2424242424242,34,654.5454545454546,34C684.848484848485,34,696.969696969697,4.375,727.2727272727274,5C757.5757575757577,5.625,784.848484848485,30.333333333333336,800.0000000000001,37" transform="matrix(1,0,0,1,0,144)"></path><path d="M10,10C23.06818181818182,12.083333333333334,44.507575757575765,26.458333333333336,72.72727272727273,20C100.9469696969697,13.541666666666666,115.15151515151517,-20.791666666666668,145.45454545454547,-21C175.75757575757575,-21.208333333333332,187.87878787878788,17.541666666666668,218.1818181818182,19C248.4848484848485,20.458333333333332,260.6060606060606,-17.958333333333332,290.90909090909093,-14C321.21212121212125,-10.041666666666668,333.33333333333337,35.916666666666664,363.6363636363637,38C393.939393939394,40.083333333333336,406.06060606060606,-1.291666666666667,436.3636363636364,-4C466.6666666666667,-6.708333333333333,478.7878787878788,23.125,509.0909090909091,25C539.3939393939395,26.875,551.5151515151515,3.125,581.8181818181819,5C612.1212121212122,6.875,624.2424242424242,34,654.5454545454546,34C684.848484848485,34,696.969696969697,4.375,727.2727272727274,5C757.5757575757577,5.625,784.848484848485,30.333333333333336,800.0000000000001,37" transform="matrix(1,0,0,1,0,132)"></path><path d="M10,10C23.06818181818182,12.083333333333334,44.507575757575765,26.458333333333336,72.72727272727273,20C100.9469696969697,13.541666666666666,115.15151515151517,-20.791666666666668,145.45454545454547,-21C175.75757575757575,-21.208333333333332,187.87878787878788,17.541666666666668,218.1818181818182,19C248.4848484848485,20.458333333333332,260.6060606060606,-17.958333333333332,290.90909090909093,-14C321.21212121212125,-10.041666666666668,333.33333333333337,35.916666666666664,363.6363636363637,38C393.939393939394,40.083333333333336,406.06060606060606,-1.291666666666667,436.3636363636364,-4C466.6666666666667,-6.708333333333333,478.7878787878788,23.125,509.0909090909091,25C539.3939393939395,26.875,551.5151515151515,3.125,581.8181818181819,5C612.1212121212122,6.875,624.2424242424242,34,654.5454545454546,34C684.848484848485,34,696.969696969697,4.375,727.2727272727274,5C757.5757575757577,5.625,784.848484848485,30.333333333333336,800.0000000000001,37" transform="matrix(1,0,0,1,0,120)"></path><path d="M10,10C23.06818181818182,12.083333333333334,44.507575757575765,26.458333333333336,72.72727272727273,20C100.9469696969697,13.541666666666666,115.15151515151517,-20.791666666666668,145.45454545454547,-21C175.75757575757575,-21.208333333333332,187.87878787878788,17.541666666666668,218.1818181818182,19C248.4848484848485,20.458333333333332,260.6060606060606,-17.958333333333332,290.90909090909093,-14C321.21212121212125,-10.041666666666668,333.33333333333337,35.916666666666664,363.6363636363637,38C393.939393939394,40.083333333333336,406.06060606060606,-1.291666666666667,436.3636363636364,-4C466.6666666666667,-6.708333333333333,478.7878787878788,23.125,509.0909090909091,25C539.3939393939395,26.875,551.5151515151515,3.125,581.8181818181819,5C612.1212121212122,6.875,624.2424242424242,34,654.5454545454546,34C684.848484848485,34,696.969696969697,4.375,727.2727272727274,5C757.5757575757577,5.625,784.848484848485,30.333333333333336,800.0000000000001,37" transform="matrix(1,0,0,1,0,108)"></path><path d="M10,10C23.06818181818182,12.083333333333334,44.507575757575765,26.458333333333336,72.72727272727273,20C100.9469696969697,13.541666666666666,115.15151515151517,-20.791666666666668,145.45454545454547,-21C175.75757575757575,-21.208333333333332,187.87878787878788,17.541666666666668,218.1818181818182,19C248.4848484848485,20.458333333333332,260.6060606060606,-17.958333333333332,290.90909090909093,-14C321.21212121212125,-10.041666666666668,333.33333333333337,35.916666666666664,363.6363636363637,38C393.939393939394,40.083333333333336,406.06060606060606,-1.291666666666667,436.3636363636364,-4C466.6666666666667,-6.708333333333333,478.7878787878788,23.125,509.0909090909091,25C539.3939393939395,26.875,551.5151515151515,3.125,581.8181818181819,5C612.1212121212122,6.875,624.2424242424242,34,654.5454545454546,34C684.848484848485,34,696.969696969697,4.375,727.2727272727274,5C757.5757575757577,5.625,784.848484848485,30.333333333333336,800.0000000000001,37" transform="matrix(1,0,0,1,0,96)"></path><path d="M10,10C23.06818181818182,12.083333333333334,44.507575757575765,26.458333333333336,72.72727272727273,20C100.9469696969697,13.541666666666666,115.15151515151517,-20.791666666666668,145.45454545454547,-21C175.75757575757575,-21.208333333333332,187.87878787878788,17.541666666666668,218.1818181818182,19C248.4848484848485,20.458333333333332,260.6060606060606,-17.958333333333332,290.90909090909093,-14C321.21212121212125,-10.041666666666668,333.33333333333337,35.916666666666664,363.6363636363637,38C393.939393939394,40.083333333333336,406.06060606060606,-1.291666666666667,436.3636363636364,-4C466.6666666666667,-6.708333333333333,478.7878787878788,23.125,509.0909090909091,25C539.3939393939395,26.875,551.5151515151515,3.125,581.8181818181819,5C612.1212121212122,6.875,624.2424242424242,34,654.5454545454546,34C684.848484848485,34,696.969696969697,4.375,727.2727272727274,5C757.5757575757577,5.625,784.848484848485,30.333333333333336,800.0000000000001,37" transform="matrix(1,0,0,1,0,84)"></path><path d="M10,10C23.06818181818182,12.083333333333334,44.507575757575765,26.458333333333336,72.72727272727273,20C100.9469696969697,13.541666666666666,115.15151515151517,-20.791666666666668,145.45454545454547,-21C175.75757575757575,-21.208333333333332,187.87878787878788,17.541666666666668,218.1818181818182,19C248.4848484848485,20.458333333333332,260.6060606060606,-17.958333333333332,290.90909090909093,-14C321.21212121212125,-10.041666666666668,333.33333333333337,35.916666666666664,363.6363636363637,38C393.939393939394,40.083333333333336,406.06060606060606,-1.291666666666667,436.3636363636364,-4C466.6666666666667,-6.708333333333333,478.7878787878788,23.125,509.0909090909091,25C539.3939393939395,26.875,551.5151515151515,3.125,581.8181818181819,5C612.1212121212122,6.875,624.2424242424242,34,654.5454545454546,34C684.848484848485,34,696.969696969697,4.375,727.2727272727274,5C757.5757575757577,5.625,784.848484848485,30.333333333333336,800.0000000000001,37" transform="matrix(1,0,0,1,0,72)"></path><path d="M10,10C23.06818181818182,12.083333333333334,44.507575757575765,26.458333333333336,72.72727272727273,20C100.9469696969697,13.541666666666666,115.15151515151517,-20.791666666666668,145.45454545454547,-21C175.75757575757575,-21.208333333333332,187.87878787878788,17.541666666666668,218.1818181818182,19C248.4848484848485,20.458333333333332,260.6060606060606,-17.958333333333332,290.90909090909093,-14C321.21212121212125,-10.041666666666668,333.33333333333337,35.916666666666664,363.6363636363637,38C393.939393939394,40.083333333333336,406.06060606060606,-1.291666666666667,436.3636363636364,-4C466.6666666666667,-6.708333333333333,478.7878787878788,23.125,509.0909090909091,25C539.3939393939395,26.875,551.5151515151515,3.125,581.8181818181819,5C612.1212121212122,6.875,624.2424242424242,34,654.5454545454546,34C684.848484848485,34,696.969696969697,4.375,727.2727272727274,5C757.5757575757577,5.625,784.848484848485,30.333333333333336,800.0000000000001,37" transform="matrix(1,0,0,1,0,60)"></path><path d="M10,10C23.06818181818182,12.083333333333334,44.507575757575765,26.458333333333336,72.72727272727273,20C100.9469696969697,13.541666666666666,115.15151515151517,-20.791666666666668,145.45454545454547,-21C175.75757575757575,-21.208333333333332,187.87878787878788,17.541666666666668,218.1818181818182,19C248.4848484848485,20.458333333333332,260.6060606060606,-17.958333333333332,290.90909090909093,-14C321.21212121212125,-10.041666666666668,333.33333333333337,35.916666666666664,363.6363636363637,38C393.939393939394,40.083333333333336,406.06060606060606,-1.291666666666667,436.3636363636364,-4C466.6666666666667,-6.708333333333333,478.7878787878788,23.125,509.0909090909091,25C539.3939393939395,26.875,551.5151515151515,3.125,581.8181818181819,5C612.1212121212122,6.875,624.2424242424242,34,654.5454545454546,34C684.848484848485,34,696.969696969697,4.375,727.2727272727274,5C757.5757575757577,5.625,784.848484848485,30.333333333333336,800.0000000000001,37" transform="matrix(1,0,0,1,0,48)"></path><path d="M10,10C23.06818181818182,12.083333333333334,44.507575757575765,26.458333333333336,72.72727272727273,20C100.9469696969697,13.541666666666666,115.15151515151517,-20.791666666666668,145.45454545454547,-21C175.75757575757575,-21.208333333333332,187.87878787878788,17.541666666666668,218.1818181818182,19C248.4848484848485,20.458333333333332,260.6060606060606,-17.958333333333332,290.90909090909093,-14C321.21212121212125,-10.041666666666668,333.33333333333337,35.916666666666664,363.6363636363637,38C393.939393939394,40.083333333333336,406.06060606060606,-1.291666666666667,436.3636363636364,-4C466.6666666666667,-6.708333333333333,478.7878787878788,23.125,509.0909090909091,25C539.3939393939395,26.875,551.5151515151515,3.125,581.8181818181819,5C612.1212121212122,6.875,624.2424242424242,34,654.5454545454546,34C684.848484848485,34,696.969696969697,4.375,727.2727272727274,5C757.5757575757577,5.625,784.848484848485,30.333333333333336,800.0000000000001,37" transform="matrix(1,0,0,1,0,36)"></path><path d="M10,10C23.06818181818182,12.083333333333334,44.507575757575765,26.458333333333336,72.72727272727273,20C100.9469696969697,13.541666666666666,115.15151515151517,-20.791666666666668,145.45454545454547,-21C175.75757575757575,-21.208333333333332,187.87878787878788,17.541666666666668,218.1818181818182,19C248.4848484848485,20.458333333333332,260.6060606060606,-17.958333333333332,290.90909090909093,-14C321.21212121212125,-10.041666666666668,333.33333333333337,35.916666666666664,363.6363636363637,38C393.939393939394,40.083333333333336,406.06060606060606,-1.291666666666667,436.3636363636364,-4C466.6666666666667,-6.708333333333333,478.7878787878788,23.125,509.0909090909091,25C539.3939393939395,26.875,551.5151515151515,3.125,581.8181818181819,5C612.1212121212122,6.875,624.2424242424242,34,654.5454545454546,34C684.848484848485,34,696.969696969697,4.375,727.2727272727274,5C757.5757575757577,5.625,784.848484848485,30.333333333333336,800.0000000000001,37" transform="matrix(1,0,0,1,0,24)"></path><path d="M10,10C23.06818181818182,12.083333333333334,44.507575757575765,26.458333333333336,72.72727272727273,20C100.9469696969697,13.541666666666666,115.15151515151517,-20.791666666666668,145.45454545454547,-21C175.75757575757575,-21.208333333333332,187.87878787878788,17.541666666666668,218.1818181818182,19C248.4848484848485,20.458333333333332,260.6060606060606,-17.958333333333332,290.90909090909093,-14C321.21212121212125,-10.041666666666668,333.33333333333337,35.916666666666664,363.6363636363637,38C393.939393939394,40.083333333333336,406.06060606060606,-1.291666666666667,436.3636363636364,-4C466.6666666666667,-6.708333333333333,478.7878787878788,23.125,509.0909090909091,25C539.3939393939395,26.875,551.5151515151515,3.125,581.8181818181819,5C612.1212121212122,6.875,624.2424242424242,34,654.5454545454546,34C684.848484848485,34,696.969696969697,4.375,727.2727272727274,5C757.5757575757577,5.625,784.848484848485,30.333333333333336,800.0000000000001,37" transform="matrix(1,0,0,1,0,12)"></path></g></svg>