<svg xmlns="http://www.w3.org/2000/svg" version="1.1" xmlns:xlink="http://www.w3.org/1999/xlink" xmlns:svgjs="http://svgjs.dev/svgjs" viewBox="0 0 800 800"><defs><linearGradient gradientTransform="rotate(270)" x1="50%" y1="0%" x2="50%" y2="100%" id="sssquiggly-grad"><stop stop-color="hsla(335, 86%, 56%, 1.00)" stop-opacity="1" offset="0%"></stop><stop stop-color="hsla(335, 40%, 80%, 1.00)" stop-opacity="1" offset="100%"></stop></linearGradient></defs><g stroke-width="2.5" stroke="url(#sssquiggly-grad)" fill="none" stroke-linecap="round" transform="matrix(1,0,0,1,-5,-72.94994735717773)"><path d="M10,10C23.06818181818182,12.083333333333334,44.507575757575765,25.208333333333336,72.72727272727273,20C100.9469696969697,14.791666666666666,115.15151515151517,-15,145.45454545454547,-15C175.75757575757575,-15,187.87878787878788,17.916666666666668,218.1818181818182,20C248.4848484848485,22.083333333333332,260.6060606060606,-5.208333333333333,290.90909090909093,-5C321.21212121212125,-4.791666666666667,333.33333333333337,23.5,363.6363636363637,21C393.939393939394,18.5,406.06060606060606,-19.291666666666668,436.3636363636364,-17C466.6666666666667,-14.708333333333334,478.7878787878788,29.5,509.0909090909091,32C539.3939393939395,34.5,551.5151515151515,-5.833333333333333,581.8181818181819,-5C612.1212121212122,-4.166666666666667,624.2424242424242,33.708333333333336,654.5454545454546,36C684.848484848485,38.291666666666664,696.969696969697,2.875,727.2727272727274,6C757.5757575757577,9.125,784.848484848485,41.625,800.0000000000001,51"></path><path d="M10,10C23.06818181818182,12.083333333333334,44.507575757575765,25.208333333333336,72.72727272727273,20C100.9469696969697,14.791666666666666,115.15151515151517,-15,145.45454545454547,-15C175.75757575757575,-15,187.87878787878788,17.916666666666668,218.1818181818182,20C248.4848484848485,22.083333333333332,260.6060606060606,-5.208333333333333,290.90909090909093,-5C321.21212121212125,-4.791666666666667,333.33333333333337,23.5,363.6363636363637,21C393.939393939394,18.5,406.06060606060606,-19.291666666666668,436.3636363636364,-17C466.6666666666667,-14.708333333333334,478.7878787878788,29.5,509.0909090909091,32C539.3939393939395,34.5,551.5151515151515,-5.833333333333333,581.8181818181819,-5C612.1212121212122,-4.166666666666667,624.2424242424242,33.708333333333336,654.5454545454546,36C684.848484848485,38.291666666666664,696.969696969697,2.875,727.2727272727274,6C757.5757575757577,9.125,784.848484848485,41.625,800.0000000000001,51" transform="matrix(1,0,0,1,0,912)"></path><path d="M10,10C23.06818181818182,12.083333333333334,44.507575757575765,25.208333333333336,72.72727272727273,20C100.9469696969697,14.791666666666666,115.15151515151517,-15,145.45454545454547,-15C175.75757575757575,-15,187.87878787878788,17.916666666666668,218.1818181818182,20C248.4848484848485,22.083333333333332,260.6060606060606,-5.208333333333333,290.90909090909093,-5C321.21212121212125,-4.791666666666667,333.33333333333337,23.5,363.6363636363637,21C393.939393939394,18.5,406.06060606060606,-19.291666666666668,436.3636363636364,-17C466.6666666666667,-14.708333333333334,478.7878787878788,29.5,509.0909090909091,32C539.3939393939395,34.5,551.5151515151515,-5.833333333333333,581.8181818181819,-5C612.1212121212122,-4.166666666666667,624.2424242424242,33.708333333333336,654.5454545454546,36C684.848484848485,38.291666666666664,696.969696969697,2.875,727.2727272727274,6C757.5757575757577,9.125,784.848484848485,41.625,800.0000000000001,51" transform="matrix(1,0,0,1,0,900)"></path><path d="M10,10C23.06818181818182,12.083333333333334,44.507575757575765,25.208333333333336,72.72727272727273,20C100.9469696969697,14.791666666666666,115.15151515151517,-15,145.45454545454547,-15C175.75757575757575,-15,187.87878787878788,17.916666666666668,218.1818181818182,20C248.4848484848485,22.083333333333332,260.6060606060606,-5.208333333333333,290.90909090909093,-5C321.21212121212125,-4.791666666666667,333.33333333333337,23.5,363.6363636363637,21C393.939393939394,18.5,406.06060606060606,-19.291666666666668,436.3636363636364,-17C466.6666666666667,-14.708333333333334,478.7878787878788,29.5,509.0909090909091,32C539.3939393939395,34.5,551.5151515151515,-5.833333333333333,581.8181818181819,-5C612.1212121212122,-4.166666666666667,624.2424242424242,33.708333333333336,654.5454545454546,36C684.848484848485,38.291666666666664,696.969696969697,2.875,727.2727272727274,6C757.5757575757577,9.125,784.848484848485,41.625,800.0000000000001,51" transform="matrix(1,0,0,1,0,888)"></path><path d="M10,10C23.06818181818182,12.083333333333334,44.507575757575765,25.208333333333336,72.72727272727273,20C100.9469696969697,14.791666666666666,115.15151515151517,-15,145.45454545454547,-15C175.75757575757575,-15,187.87878787878788,17.916666666666668,218.1818181818182,20C248.4848484848485,22.083333333333332,260.6060606060606,-5.208333333333333,290.90909090909093,-5C321.21212121212125,-4.791666666666667,333.33333333333337,23.5,363.6363636363637,21C393.939393939394,18.5,406.06060606060606,-19.291666666666668,436.3636363636364,-17C466.6666666666667,-14.708333333333334,478.7878787878788,29.5,509.0909090909091,32C539.3939393939395,34.5,551.5151515151515,-5.833333333333333,581.8181818181819,-5C612.1212121212122,-4.166666666666667,624.2424242424242,33.708333333333336,654.5454545454546,36C684.848484848485,38.291666666666664,696.969696969697,2.875,727.2727272727274,6C757.5757575757577,9.125,784.848484848485,41.625,800.0000000000001,51" transform="matrix(1,0,0,1,0,876)"></path><path d="M10,10C23.06818181818182,12.083333333333334,44.507575757575765,25.208333333333336,72.72727272727273,20C100.9469696969697,14.791666666666666,115.15151515151517,-15,145.45454545454547,-15C175.75757575757575,-15,187.87878787878788,17.916666666666668,218.1818181818182,20C248.4848484848485,22.083333333333332,260.6060606060606,-5.208333333333333,290.90909090909093,-5C321.21212121212125,-4.791666666666667,333.33333333333337,23.5,363.6363636363637,21C393.939393939394,18.5,406.06060606060606,-19.291666666666668,436.3636363636364,-17C466.6666666666667,-14.708333333333334,478.7878787878788,29.5,509.0909090909091,32C539.3939393939395,34.5,551.5151515151515,-5.833333333333333,581.8181818181819,-5C612.1212121212122,-4.166666666666667,624.2424242424242,33.708333333333336,654.5454545454546,36C684.848484848485,38.291666666666664,696.969696969697,2.875,727.2727272727274,6C757.5757575757577,9.125,784.848484848485,41.625,800.0000000000001,51" transform="matrix(1,0,0,1,0,864)"></path><path d="M10,10C23.06818181818182,12.083333333333334,44.507575757575765,25.208333333333336,72.72727272727273,20C100.9469696969697,14.791666666666666,115.15151515151517,-15,145.45454545454547,-15C175.75757575757575,-15,187.87878787878788,17.916666666666668,218.1818181818182,20C248.4848484848485,22.083333333333332,260.6060606060606,-5.208333333333333,290.90909090909093,-5C321.21212121212125,-4.791666666666667,333.33333333333337,23.5,363.6363636363637,21C393.939393939394,18.5,406.06060606060606,-19.291666666666668,436.3636363636364,-17C466.6666666666667,-14.708333333333334,478.7878787878788,29.5,509.0909090909091,32C539.3939393939395,34.5,551.5151515151515,-5.833333333333333,581.8181818181819,-5C612.1212121212122,-4.166666666666667,624.2424242424242,33.708333333333336,654.5454545454546,36C684.848484848485,38.291666666666664,696.969696969697,2.875,727.2727272727274,6C757.5757575757577,9.125,784.848484848485,41.625,800.0000000000001,51" transform="matrix(1,0,0,1,0,852)"></path><path d="M10,10C23.06818181818182,12.083333333333334,44.507575757575765,25.208333333333336,72.72727272727273,20C100.9469696969697,14.791666666666666,115.15151515151517,-15,145.45454545454547,-15C175.75757575757575,-15,187.87878787878788,17.916666666666668,218.1818181818182,20C248.4848484848485,22.083333333333332,260.6060606060606,-5.208333333333333,290.90909090909093,-5C321.21212121212125,-4.791666666666667,333.33333333333337,23.5,363.6363636363637,21C393.939393939394,18.5,406.06060606060606,-19.291666666666668,436.3636363636364,-17C466.6666666666667,-14.708333333333334,478.7878787878788,29.5,509.0909090909091,32C539.3939393939395,34.5,551.5151515151515,-5.833333333333333,581.8181818181819,-5C612.1212121212122,-4.166666666666667,624.2424242424242,33.708333333333336,654.5454545454546,36C684.848484848485,38.291666666666664,696.969696969697,2.875,727.2727272727274,6C757.5757575757577,9.125,784.848484848485,41.625,800.0000000000001,51" transform="matrix(1,0,0,1,0,840)"></path><path d="M10,10C23.06818181818182,12.083333333333334,44.507575757575765,25.208333333333336,72.72727272727273,20C100.9469696969697,14.791666666666666,115.15151515151517,-15,145.45454545454547,-15C175.75757575757575,-15,187.87878787878788,17.916666666666668,218.1818181818182,20C248.4848484848485,22.083333333333332,260.6060606060606,-5.208333333333333,290.90909090909093,-5C321.21212121212125,-4.791666666666667,333.33333333333337,23.5,363.6363636363637,21C393.939393939394,18.5,406.06060606060606,-19.291666666666668,436.3636363636364,-17C466.6666666666667,-14.708333333333334,478.7878787878788,29.5,509.0909090909091,32C539.3939393939395,34.5,551.5151515151515,-5.833333333333333,581.8181818181819,-5C612.1212121212122,-4.166666666666667,624.2424242424242,33.708333333333336,654.5454545454546,36C684.848484848485,38.291666666666664,696.969696969697,2.875,727.2727272727274,6C757.5757575757577,9.125,784.848484848485,41.625,800.0000000000001,51" transform="matrix(1,0,0,1,0,828)"></path><path d="M10,10C23.06818181818182,12.083333333333334,44.507575757575765,25.208333333333336,72.72727272727273,20C100.9469696969697,14.791666666666666,115.15151515151517,-15,145.45454545454547,-15C175.75757575757575,-15,187.87878787878788,17.916666666666668,218.1818181818182,20C248.4848484848485,22.083333333333332,260.6060606060606,-5.208333333333333,290.90909090909093,-5C321.21212121212125,-4.791666666666667,333.33333333333337,23.5,363.6363636363637,21C393.939393939394,18.5,406.06060606060606,-19.291666666666668,436.3636363636364,-17C466.6666666666667,-14.708333333333334,478.7878787878788,29.5,509.0909090909091,32C539.3939393939395,34.5,551.5151515151515,-5.833333333333333,581.8181818181819,-5C612.1212121212122,-4.166666666666667,624.2424242424242,33.708333333333336,654.5454545454546,36C684.848484848485,38.291666666666664,696.969696969697,2.875,727.2727272727274,6C757.5757575757577,9.125,784.848484848485,41.625,800.0000000000001,51" transform="matrix(1,0,0,1,0,816)"></path><path d="M10,10C23.06818181818182,12.083333333333334,44.507575757575765,25.208333333333336,72.72727272727273,20C100.9469696969697,14.791666666666666,115.15151515151517,-15,145.45454545454547,-15C175.75757575757575,-15,187.87878787878788,17.916666666666668,218.1818181818182,20C248.4848484848485,22.083333333333332,260.6060606060606,-5.208333333333333,290.90909090909093,-5C321.21212121212125,-4.791666666666667,333.33333333333337,23.5,363.6363636363637,21C393.939393939394,18.5,406.06060606060606,-19.291666666666668,436.3636363636364,-17C466.6666666666667,-14.708333333333334,478.7878787878788,29.5,509.0909090909091,32C539.3939393939395,34.5,551.5151515151515,-5.833333333333333,581.8181818181819,-5C612.1212121212122,-4.166666666666667,624.2424242424242,33.708333333333336,654.5454545454546,36C684.848484848485,38.291666666666664,696.969696969697,2.875,727.2727272727274,6C757.5757575757577,9.125,784.848484848485,41.625,800.0000000000001,51" transform="matrix(1,0,0,1,0,804)"></path><path d="M10,10C23.06818181818182,12.083333333333334,44.507575757575765,25.208333333333336,72.72727272727273,20C100.9469696969697,14.791666666666666,115.15151515151517,-15,145.45454545454547,-15C175.75757575757575,-15,187.87878787878788,17.916666666666668,218.1818181818182,20C248.4848484848485,22.083333333333332,260.6060606060606,-5.208333333333333,290.90909090909093,-5C321.21212121212125,-4.791666666666667,333.33333333333337,23.5,363.6363636363637,21C393.939393939394,18.5,406.06060606060606,-19.291666666666668,436.3636363636364,-17C466.6666666666667,-14.708333333333334,478.7878787878788,29.5,509.0909090909091,32C539.3939393939395,34.5,551.5151515151515,-5.833333333333333,581.8181818181819,-5C612.1212121212122,-4.166666666666667,624.2424242424242,33.708333333333336,654.5454545454546,36C684.848484848485,38.291666666666664,696.969696969697,2.875,727.2727272727274,6C757.5757575757577,9.125,784.848484848485,41.625,800.0000000000001,51" transform="matrix(1,0,0,1,0,792)"></path><path d="M10,10C23.06818181818182,12.083333333333334,44.507575757575765,25.208333333333336,72.72727272727273,20C100.9469696969697,14.791666666666666,115.15151515151517,-15,145.45454545454547,-15C175.75757575757575,-15,187.87878787878788,17.916666666666668,218.1818181818182,20C248.4848484848485,22.083333333333332,260.6060606060606,-5.208333333333333,290.90909090909093,-5C321.21212121212125,-4.791666666666667,333.33333333333337,23.5,363.6363636363637,21C393.939393939394,18.5,406.06060606060606,-19.291666666666668,436.3636363636364,-17C466.6666666666667,-14.708333333333334,478.7878787878788,29.5,509.0909090909091,32C539.3939393939395,34.5,551.5151515151515,-5.833333333333333,581.8181818181819,-5C612.1212121212122,-4.166666666666667,624.2424242424242,33.708333333333336,654.5454545454546,36C684.848484848485,38.291666666666664,696.969696969697,2.875,727.2727272727274,6C757.5757575757577,9.125,784.848484848485,41.625,800.0000000000001,51" transform="matrix(1,0,0,1,0,780)"></path><path d="M10,10C23.06818181818182,12.083333333333334,44.507575757575765,25.208333333333336,72.72727272727273,20C100.9469696969697,14.791666666666666,115.15151515151517,-15,145.45454545454547,-15C175.75757575757575,-15,187.87878787878788,17.916666666666668,218.1818181818182,20C248.4848484848485,22.083333333333332,260.6060606060606,-5.208333333333333,290.90909090909093,-5C321.21212121212125,-4.791666666666667,333.33333333333337,23.5,363.6363636363637,21C393.939393939394,18.5,406.06060606060606,-19.291666666666668,436.3636363636364,-17C466.6666666666667,-14.708333333333334,478.7878787878788,29.5,509.0909090909091,32C539.3939393939395,34.5,551.5151515151515,-5.833333333333333,581.8181818181819,-5C612.1212121212122,-4.166666666666667,624.2424242424242,33.708333333333336,654.5454545454546,36C684.848484848485,38.291666666666664,696.969696969697,2.875,727.2727272727274,6C757.5757575757577,9.125,784.848484848485,41.625,800.0000000000001,51" transform="matrix(1,0,0,1,0,768)"></path><path d="M10,10C23.06818181818182,12.083333333333334,44.507575757575765,25.208333333333336,72.72727272727273,20C100.9469696969697,14.791666666666666,115.15151515151517,-15,145.45454545454547,-15C175.75757575757575,-15,187.87878787878788,17.916666666666668,218.1818181818182,20C248.4848484848485,22.083333333333332,260.6060606060606,-5.208333333333333,290.90909090909093,-5C321.21212121212125,-4.791666666666667,333.33333333333337,23.5,363.6363636363637,21C393.939393939394,18.5,406.06060606060606,-19.291666666666668,436.3636363636364,-17C466.6666666666667,-14.708333333333334,478.7878787878788,29.5,509.0909090909091,32C539.3939393939395,34.5,551.5151515151515,-5.833333333333333,581.8181818181819,-5C612.1212121212122,-4.166666666666667,624.2424242424242,33.708333333333336,654.5454545454546,36C684.848484848485,38.291666666666664,696.969696969697,2.875,727.2727272727274,6C757.5757575757577,9.125,784.848484848485,41.625,800.0000000000001,51" transform="matrix(1,0,0,1,0,756)"></path><path d="M10,10C23.06818181818182,12.083333333333334,44.507575757575765,25.208333333333336,72.72727272727273,20C100.9469696969697,14.791666666666666,115.15151515151517,-15,145.45454545454547,-15C175.75757575757575,-15,187.87878787878788,17.916666666666668,218.1818181818182,20C248.4848484848485,22.083333333333332,260.6060606060606,-5.208333333333333,290.90909090909093,-5C321.21212121212125,-4.791666666666667,333.33333333333337,23.5,363.6363636363637,21C393.939393939394,18.5,406.06060606060606,-19.291666666666668,436.3636363636364,-17C466.6666666666667,-14.708333333333334,478.7878787878788,29.5,509.0909090909091,32C539.3939393939395,34.5,551.5151515151515,-5.833333333333333,581.8181818181819,-5C612.1212121212122,-4.166666666666667,624.2424242424242,33.708333333333336,654.5454545454546,36C684.848484848485,38.291666666666664,696.969696969697,2.875,727.2727272727274,6C757.5757575757577,9.125,784.848484848485,41.625,800.0000000000001,51" transform="matrix(1,0,0,1,0,744)"></path><path d="M10,10C23.06818181818182,12.083333333333334,44.507575757575765,25.208333333333336,72.72727272727273,20C100.9469696969697,14.791666666666666,115.15151515151517,-15,145.45454545454547,-15C175.75757575757575,-15,187.87878787878788,17.916666666666668,218.1818181818182,20C248.4848484848485,22.083333333333332,260.6060606060606,-5.208333333333333,290.90909090909093,-5C321.21212121212125,-4.791666666666667,333.33333333333337,23.5,363.6363636363637,21C393.939393939394,18.5,406.06060606060606,-19.291666666666668,436.3636363636364,-17C466.6666666666667,-14.708333333333334,478.7878787878788,29.5,509.0909090909091,32C539.3939393939395,34.5,551.5151515151515,-5.833333333333333,581.8181818181819,-5C612.1212121212122,-4.166666666666667,624.2424242424242,33.708333333333336,654.5454545454546,36C684.848484848485,38.291666666666664,696.969696969697,2.875,727.2727272727274,6C757.5757575757577,9.125,784.848484848485,41.625,800.0000000000001,51" transform="matrix(1,0,0,1,0,732)"></path><path d="M10,10C23.06818181818182,12.083333333333334,44.507575757575765,25.208333333333336,72.72727272727273,20C100.9469696969697,14.791666666666666,115.15151515151517,-15,145.45454545454547,-15C175.75757575757575,-15,187.87878787878788,17.916666666666668,218.1818181818182,20C248.4848484848485,22.083333333333332,260.6060606060606,-5.208333333333333,290.90909090909093,-5C321.21212121212125,-4.791666666666667,333.33333333333337,23.5,363.6363636363637,21C393.939393939394,18.5,406.06060606060606,-19.291666666666668,436.3636363636364,-17C466.6666666666667,-14.708333333333334,478.7878787878788,29.5,509.0909090909091,32C539.3939393939395,34.5,551.5151515151515,-5.833333333333333,581.8181818181819,-5C612.1212121212122,-4.166666666666667,624.2424242424242,33.708333333333336,654.5454545454546,36C684.848484848485,38.291666666666664,696.969696969697,2.875,727.2727272727274,6C757.5757575757577,9.125,784.848484848485,41.625,800.0000000000001,51" transform="matrix(1,0,0,1,0,720)"></path><path d="M10,10C23.06818181818182,12.083333333333334,44.507575757575765,25.208333333333336,72.72727272727273,20C100.9469696969697,14.791666666666666,115.15151515151517,-15,145.45454545454547,-15C175.75757575757575,-15,187.87878787878788,17.916666666666668,218.1818181818182,20C248.4848484848485,22.083333333333332,260.6060606060606,-5.208333333333333,290.90909090909093,-5C321.21212121212125,-4.791666666666667,333.33333333333337,23.5,363.6363636363637,21C393.939393939394,18.5,406.06060606060606,-19.291666666666668,436.3636363636364,-17C466.6666666666667,-14.708333333333334,478.7878787878788,29.5,509.0909090909091,32C539.3939393939395,34.5,551.5151515151515,-5.833333333333333,581.8181818181819,-5C612.1212121212122,-4.166666666666667,624.2424242424242,33.708333333333336,654.5454545454546,36C684.848484848485,38.291666666666664,696.969696969697,2.875,727.2727272727274,6C757.5757575757577,9.125,784.848484848485,41.625,800.0000000000001,51" transform="matrix(1,0,0,1,0,708)"></path><path d="M10,10C23.06818181818182,12.083333333333334,44.507575757575765,25.208333333333336,72.72727272727273,20C100.9469696969697,14.791666666666666,115.15151515151517,-15,145.45454545454547,-15C175.75757575757575,-15,187.87878787878788,17.916666666666668,218.1818181818182,20C248.4848484848485,22.083333333333332,260.6060606060606,-5.208333333333333,290.90909090909093,-5C321.21212121212125,-4.791666666666667,333.33333333333337,23.5,363.6363636363637,21C393.939393939394,18.5,406.06060606060606,-19.291666666666668,436.3636363636364,-17C466.6666666666667,-14.708333333333334,478.7878787878788,29.5,509.0909090909091,32C539.3939393939395,34.5,551.5151515151515,-5.833333333333333,581.8181818181819,-5C612.1212121212122,-4.166666666666667,624.2424242424242,33.708333333333336,654.5454545454546,36C684.848484848485,38.291666666666664,696.969696969697,2.875,727.2727272727274,6C757.5757575757577,9.125,784.848484848485,41.625,800.0000000000001,51" transform="matrix(1,0,0,1,0,696)"></path><path d="M10,10C23.06818181818182,12.083333333333334,44.507575757575765,25.208333333333336,72.72727272727273,20C100.9469696969697,14.791666666666666,115.15151515151517,-15,145.45454545454547,-15C175.75757575757575,-15,187.87878787878788,17.916666666666668,218.1818181818182,20C248.4848484848485,22.083333333333332,260.6060606060606,-5.208333333333333,290.90909090909093,-5C321.21212121212125,-4.791666666666667,333.33333333333337,23.5,363.6363636363637,21C393.939393939394,18.5,406.06060606060606,-19.291666666666668,436.3636363636364,-17C466.6666666666667,-14.708333333333334,478.7878787878788,29.5,509.0909090909091,32C539.3939393939395,34.5,551.5151515151515,-5.833333333333333,581.8181818181819,-5C612.1212121212122,-4.166666666666667,624.2424242424242,33.708333333333336,654.5454545454546,36C684.848484848485,38.291666666666664,696.969696969697,2.875,727.2727272727274,6C757.5757575757577,9.125,784.848484848485,41.625,800.0000000000001,51" transform="matrix(1,0,0,1,0,684)"></path><path d="M10,10C23.06818181818182,12.083333333333334,44.507575757575765,25.208333333333336,72.72727272727273,20C100.9469696969697,14.791666666666666,115.15151515151517,-15,145.45454545454547,-15C175.75757575757575,-15,187.87878787878788,17.916666666666668,218.1818181818182,20C248.4848484848485,22.083333333333332,260.6060606060606,-5.208333333333333,290.90909090909093,-5C321.21212121212125,-4.791666666666667,333.33333333333337,23.5,363.6363636363637,21C393.939393939394,18.5,406.06060606060606,-19.291666666666668,436.3636363636364,-17C466.6666666666667,-14.708333333333334,478.7878787878788,29.5,509.0909090909091,32C539.3939393939395,34.5,551.5151515151515,-5.833333333333333,581.8181818181819,-5C612.1212121212122,-4.166666666666667,624.2424242424242,33.708333333333336,654.5454545454546,36C684.848484848485,38.291666666666664,696.969696969697,2.875,727.2727272727274,6C757.5757575757577,9.125,784.848484848485,41.625,800.0000000000001,51" transform="matrix(1,0,0,1,0,672)"></path><path d="M10,10C23.06818181818182,12.083333333333334,44.507575757575765,25.208333333333336,72.72727272727273,20C100.9469696969697,14.791666666666666,115.15151515151517,-15,145.45454545454547,-15C175.75757575757575,-15,187.87878787878788,17.916666666666668,218.1818181818182,20C248.4848484848485,22.083333333333332,260.6060606060606,-5.208333333333333,290.90909090909093,-5C321.21212121212125,-4.791666666666667,333.33333333333337,23.5,363.6363636363637,21C393.939393939394,18.5,406.06060606060606,-19.291666666666668,436.3636363636364,-17C466.6666666666667,-14.708333333333334,478.7878787878788,29.5,509.0909090909091,32C539.3939393939395,34.5,551.5151515151515,-5.833333333333333,581.8181818181819,-5C612.1212121212122,-4.166666666666667,624.2424242424242,33.708333333333336,654.5454545454546,36C684.848484848485,38.291666666666664,696.969696969697,2.875,727.2727272727274,6C757.5757575757577,9.125,784.848484848485,41.625,800.0000000000001,51" transform="matrix(1,0,0,1,0,660)"></path><path d="M10,10C23.06818181818182,12.083333333333334,44.507575757575765,25.208333333333336,72.72727272727273,20C100.9469696969697,14.791666666666666,115.15151515151517,-15,145.45454545454547,-15C175.75757575757575,-15,187.87878787878788,17.916666666666668,218.1818181818182,20C248.4848484848485,22.083333333333332,260.6060606060606,-5.208333333333333,290.90909090909093,-5C321.21212121212125,-4.791666666666667,333.33333333333337,23.5,363.6363636363637,21C393.939393939394,18.5,406.06060606060606,-19.291666666666668,436.3636363636364,-17C466.6666666666667,-14.708333333333334,478.7878787878788,29.5,509.0909090909091,32C539.3939393939395,34.5,551.5151515151515,-5.833333333333333,581.8181818181819,-5C612.1212121212122,-4.166666666666667,624.2424242424242,33.708333333333336,654.5454545454546,36C684.848484848485,38.291666666666664,696.969696969697,2.875,727.2727272727274,6C757.5757575757577,9.125,784.848484848485,41.625,800.0000000000001,51" transform="matrix(1,0,0,1,0,648)"></path><path d="M10,10C23.06818181818182,12.083333333333334,44.507575757575765,25.208333333333336,72.72727272727273,20C100.9469696969697,14.791666666666666,115.15151515151517,-15,145.45454545454547,-15C175.75757575757575,-15,187.87878787878788,17.916666666666668,218.1818181818182,20C248.4848484848485,22.083333333333332,260.6060606060606,-5.208333333333333,290.90909090909093,-5C321.21212121212125,-4.791666666666667,333.33333333333337,23.5,363.6363636363637,21C393.939393939394,18.5,406.06060606060606,-19.291666666666668,436.3636363636364,-17C466.6666666666667,-14.708333333333334,478.7878787878788,29.5,509.0909090909091,32C539.3939393939395,34.5,551.5151515151515,-5.833333333333333,581.8181818181819,-5C612.1212121212122,-4.166666666666667,624.2424242424242,33.708333333333336,654.5454545454546,36C684.848484848485,38.291666666666664,696.969696969697,2.875,727.2727272727274,6C757.5757575757577,9.125,784.848484848485,41.625,800.0000000000001,51" transform="matrix(1,0,0,1,0,636)"></path><path d="M10,10C23.06818181818182,12.083333333333334,44.507575757575765,25.208333333333336,72.72727272727273,20C100.9469696969697,14.791666666666666,115.15151515151517,-15,145.45454545454547,-15C175.75757575757575,-15,187.87878787878788,17.916666666666668,218.1818181818182,20C248.4848484848485,22.083333333333332,260.6060606060606,-5.208333333333333,290.90909090909093,-5C321.21212121212125,-4.791666666666667,333.33333333333337,23.5,363.6363636363637,21C393.939393939394,18.5,406.06060606060606,-19.291666666666668,436.3636363636364,-17C466.6666666666667,-14.708333333333334,478.7878787878788,29.5,509.0909090909091,32C539.3939393939395,34.5,551.5151515151515,-5.833333333333333,581.8181818181819,-5C612.1212121212122,-4.166666666666667,624.2424242424242,33.708333333333336,654.5454545454546,36C684.848484848485,38.291666666666664,696.969696969697,2.875,727.2727272727274,6C757.5757575757577,9.125,784.848484848485,41.625,800.0000000000001,51" transform="matrix(1,0,0,1,0,624)"></path><path d="M10,10C23.06818181818182,12.083333333333334,44.507575757575765,25.208333333333336,72.72727272727273,20C100.9469696969697,14.791666666666666,115.15151515151517,-15,145.45454545454547,-15C175.75757575757575,-15,187.87878787878788,17.916666666666668,218.1818181818182,20C248.4848484848485,22.083333333333332,260.6060606060606,-5.208333333333333,290.90909090909093,-5C321.21212121212125,-4.791666666666667,333.33333333333337,23.5,363.6363636363637,21C393.939393939394,18.5,406.06060606060606,-19.291666666666668,436.3636363636364,-17C466.6666666666667,-14.708333333333334,478.7878787878788,29.5,509.0909090909091,32C539.3939393939395,34.5,551.5151515151515,-5.833333333333333,581.8181818181819,-5C612.1212121212122,-4.166666666666667,624.2424242424242,33.708333333333336,654.5454545454546,36C684.848484848485,38.291666666666664,696.969696969697,2.875,727.2727272727274,6C757.5757575757577,9.125,784.848484848485,41.625,800.0000000000001,51" transform="matrix(1,0,0,1,0,612)"></path><path d="M10,10C23.06818181818182,12.083333333333334,44.507575757575765,25.208333333333336,72.72727272727273,20C100.9469696969697,14.791666666666666,115.15151515151517,-15,145.45454545454547,-15C175.75757575757575,-15,187.87878787878788,17.916666666666668,218.1818181818182,20C248.4848484848485,22.083333333333332,260.6060606060606,-5.208333333333333,290.90909090909093,-5C321.21212121212125,-4.791666666666667,333.33333333333337,23.5,363.6363636363637,21C393.939393939394,18.5,406.06060606060606,-19.291666666666668,436.3636363636364,-17C466.6666666666667,-14.708333333333334,478.7878787878788,29.5,509.0909090909091,32C539.3939393939395,34.5,551.5151515151515,-5.833333333333333,581.8181818181819,-5C612.1212121212122,-4.166666666666667,624.2424242424242,33.708333333333336,654.5454545454546,36C684.848484848485,38.291666666666664,696.969696969697,2.875,727.2727272727274,6C757.5757575757577,9.125,784.848484848485,41.625,800.0000000000001,51" transform="matrix(1,0,0,1,0,600)"></path><path d="M10,10C23.06818181818182,12.083333333333334,44.507575757575765,25.208333333333336,72.72727272727273,20C100.9469696969697,14.791666666666666,115.15151515151517,-15,145.45454545454547,-15C175.75757575757575,-15,187.87878787878788,17.916666666666668,218.1818181818182,20C248.4848484848485,22.083333333333332,260.6060606060606,-5.208333333333333,290.90909090909093,-5C321.21212121212125,-4.791666666666667,333.33333333333337,23.5,363.6363636363637,21C393.939393939394,18.5,406.06060606060606,-19.291666666666668,436.3636363636364,-17C466.6666666666667,-14.708333333333334,478.7878787878788,29.5,509.0909090909091,32C539.3939393939395,34.5,551.5151515151515,-5.833333333333333,581.8181818181819,-5C612.1212121212122,-4.166666666666667,624.2424242424242,33.708333333333336,654.5454545454546,36C684.848484848485,38.291666666666664,696.969696969697,2.875,727.2727272727274,6C757.5757575757577,9.125,784.848484848485,41.625,800.0000000000001,51" transform="matrix(1,0,0,1,0,588)"></path><path d="M10,10C23.06818181818182,12.083333333333334,44.507575757575765,25.208333333333336,72.72727272727273,20C100.9469696969697,14.791666666666666,115.15151515151517,-15,145.45454545454547,-15C175.75757575757575,-15,187.87878787878788,17.916666666666668,218.1818181818182,20C248.4848484848485,22.083333333333332,260.6060606060606,-5.208333333333333,290.90909090909093,-5C321.21212121212125,-4.791666666666667,333.33333333333337,23.5,363.6363636363637,21C393.939393939394,18.5,406.06060606060606,-19.291666666666668,436.3636363636364,-17C466.6666666666667,-14.708333333333334,478.7878787878788,29.5,509.0909090909091,32C539.3939393939395,34.5,551.5151515151515,-5.833333333333333,581.8181818181819,-5C612.1212121212122,-4.166666666666667,624.2424242424242,33.708333333333336,654.5454545454546,36C684.848484848485,38.291666666666664,696.969696969697,2.875,727.2727272727274,6C757.5757575757577,9.125,784.848484848485,41.625,800.0000000000001,51" transform="matrix(1,0,0,1,0,576)"></path><path d="M10,10C23.06818181818182,12.083333333333334,44.507575757575765,25.208333333333336,72.72727272727273,20C100.9469696969697,14.791666666666666,115.15151515151517,-15,145.45454545454547,-15C175.75757575757575,-15,187.87878787878788,17.916666666666668,218.1818181818182,20C248.4848484848485,22.083333333333332,260.6060606060606,-5.208333333333333,290.90909090909093,-5C321.21212121212125,-4.791666666666667,333.33333333333337,23.5,363.6363636363637,21C393.939393939394,18.5,406.06060606060606,-19.291666666666668,436.3636363636364,-17C466.6666666666667,-14.708333333333334,478.7878787878788,29.5,509.0909090909091,32C539.3939393939395,34.5,551.5151515151515,-5.833333333333333,581.8181818181819,-5C612.1212121212122,-4.166666666666667,624.2424242424242,33.708333333333336,654.5454545454546,36C684.848484848485,38.291666666666664,696.969696969697,2.875,727.2727272727274,6C757.5757575757577,9.125,784.848484848485,41.625,800.0000000000001,51" transform="matrix(1,0,0,1,0,564)"></path><path d="M10,10C23.06818181818182,12.083333333333334,44.507575757575765,25.208333333333336,72.72727272727273,20C100.9469696969697,14.791666666666666,115.15151515151517,-15,145.45454545454547,-15C175.75757575757575,-15,187.87878787878788,17.916666666666668,218.1818181818182,20C248.4848484848485,22.083333333333332,260.6060606060606,-5.208333333333333,290.90909090909093,-5C321.21212121212125,-4.791666666666667,333.33333333333337,23.5,363.6363636363637,21C393.939393939394,18.5,406.06060606060606,-19.291666666666668,436.3636363636364,-17C466.6666666666667,-14.708333333333334,478.7878787878788,29.5,509.0909090909091,32C539.3939393939395,34.5,551.5151515151515,-5.833333333333333,581.8181818181819,-5C612.1212121212122,-4.166666666666667,624.2424242424242,33.708333333333336,654.5454545454546,36C684.848484848485,38.291666666666664,696.969696969697,2.875,727.2727272727274,6C757.5757575757577,9.125,784.848484848485,41.625,800.0000000000001,51" transform="matrix(1,0,0,1,0,552)"></path><path d="M10,10C23.06818181818182,12.083333333333334,44.507575757575765,25.208333333333336,72.72727272727273,20C100.9469696969697,14.791666666666666,115.15151515151517,-15,145.45454545454547,-15C175.75757575757575,-15,187.87878787878788,17.916666666666668,218.1818181818182,20C248.4848484848485,22.083333333333332,260.6060606060606,-5.208333333333333,290.90909090909093,-5C321.21212121212125,-4.791666666666667,333.33333333333337,23.5,363.6363636363637,21C393.939393939394,18.5,406.06060606060606,-19.291666666666668,436.3636363636364,-17C466.6666666666667,-14.708333333333334,478.7878787878788,29.5,509.0909090909091,32C539.3939393939395,34.5,551.5151515151515,-5.833333333333333,581.8181818181819,-5C612.1212121212122,-4.166666666666667,624.2424242424242,33.708333333333336,654.5454545454546,36C684.848484848485,38.291666666666664,696.969696969697,2.875,727.2727272727274,6C757.5757575757577,9.125,784.848484848485,41.625,800.0000000000001,51" transform="matrix(1,0,0,1,0,540)"></path><path d="M10,10C23.06818181818182,12.083333333333334,44.507575757575765,25.208333333333336,72.72727272727273,20C100.9469696969697,14.791666666666666,115.15151515151517,-15,145.45454545454547,-15C175.75757575757575,-15,187.87878787878788,17.916666666666668,218.1818181818182,20C248.4848484848485,22.083333333333332,260.6060606060606,-5.208333333333333,290.90909090909093,-5C321.21212121212125,-4.791666666666667,333.33333333333337,23.5,363.6363636363637,21C393.939393939394,18.5,406.06060606060606,-19.291666666666668,436.3636363636364,-17C466.6666666666667,-14.708333333333334,478.7878787878788,29.5,509.0909090909091,32C539.3939393939395,34.5,551.5151515151515,-5.833333333333333,581.8181818181819,-5C612.1212121212122,-4.166666666666667,624.2424242424242,33.708333333333336,654.5454545454546,36C684.848484848485,38.291666666666664,696.969696969697,2.875,727.2727272727274,6C757.5757575757577,9.125,784.848484848485,41.625,800.0000000000001,51" transform="matrix(1,0,0,1,0,528)"></path><path d="M10,10C23.06818181818182,12.083333333333334,44.507575757575765,25.208333333333336,72.72727272727273,20C100.9469696969697,14.791666666666666,115.15151515151517,-15,145.45454545454547,-15C175.75757575757575,-15,187.87878787878788,17.916666666666668,218.1818181818182,20C248.4848484848485,22.083333333333332,260.6060606060606,-5.208333333333333,290.90909090909093,-5C321.21212121212125,-4.791666666666667,333.33333333333337,23.5,363.6363636363637,21C393.939393939394,18.5,406.06060606060606,-19.291666666666668,436.3636363636364,-17C466.6666666666667,-14.708333333333334,478.7878787878788,29.5,509.0909090909091,32C539.3939393939395,34.5,551.5151515151515,-5.833333333333333,581.8181818181819,-5C612.1212121212122,-4.166666666666667,624.2424242424242,33.708333333333336,654.5454545454546,36C684.848484848485,38.291666666666664,696.969696969697,2.875,727.2727272727274,6C757.5757575757577,9.125,784.848484848485,41.625,800.0000000000001,51" transform="matrix(1,0,0,1,0,516)"></path><path d="M10,10C23.06818181818182,12.083333333333334,44.507575757575765,25.208333333333336,72.72727272727273,20C100.9469696969697,14.791666666666666,115.15151515151517,-15,145.45454545454547,-15C175.75757575757575,-15,187.87878787878788,17.916666666666668,218.1818181818182,20C248.4848484848485,22.083333333333332,260.6060606060606,-5.208333333333333,290.90909090909093,-5C321.21212121212125,-4.791666666666667,333.33333333333337,23.5,363.6363636363637,21C393.939393939394,18.5,406.06060606060606,-19.291666666666668,436.3636363636364,-17C466.6666666666667,-14.708333333333334,478.7878787878788,29.5,509.0909090909091,32C539.3939393939395,34.5,551.5151515151515,-5.833333333333333,581.8181818181819,-5C612.1212121212122,-4.166666666666667,624.2424242424242,33.708333333333336,654.5454545454546,36C684.848484848485,38.291666666666664,696.969696969697,2.875,727.2727272727274,6C757.5757575757577,9.125,784.848484848485,41.625,800.0000000000001,51" transform="matrix(1,0,0,1,0,504)"></path><path d="M10,10C23.06818181818182,12.083333333333334,44.507575757575765,25.208333333333336,72.72727272727273,20C100.9469696969697,14.791666666666666,115.15151515151517,-15,145.45454545454547,-15C175.75757575757575,-15,187.87878787878788,17.916666666666668,218.1818181818182,20C248.4848484848485,22.083333333333332,260.6060606060606,-5.208333333333333,290.90909090909093,-5C321.21212121212125,-4.791666666666667,333.33333333333337,23.5,363.6363636363637,21C393.939393939394,18.5,406.06060606060606,-19.291666666666668,436.3636363636364,-17C466.6666666666667,-14.708333333333334,478.7878787878788,29.5,509.0909090909091,32C539.3939393939395,34.5,551.5151515151515,-5.833333333333333,581.8181818181819,-5C612.1212121212122,-4.166666666666667,624.2424242424242,33.708333333333336,654.5454545454546,36C684.848484848485,38.291666666666664,696.969696969697,2.875,727.2727272727274,6C757.5757575757577,9.125,784.848484848485,41.625,800.0000000000001,51" transform="matrix(1,0,0,1,0,492)"></path><path d="M10,10C23.06818181818182,12.083333333333334,44.507575757575765,25.208333333333336,72.72727272727273,20C100.9469696969697,14.791666666666666,115.15151515151517,-15,145.45454545454547,-15C175.75757575757575,-15,187.87878787878788,17.916666666666668,218.1818181818182,20C248.4848484848485,22.083333333333332,260.6060606060606,-5.208333333333333,290.90909090909093,-5C321.21212121212125,-4.791666666666667,333.33333333333337,23.5,363.6363636363637,21C393.939393939394,18.5,406.06060606060606,-19.291666666666668,436.3636363636364,-17C466.6666666666667,-14.708333333333334,478.7878787878788,29.5,509.0909090909091,32C539.3939393939395,34.5,551.5151515151515,-5.833333333333333,581.8181818181819,-5C612.1212121212122,-4.166666666666667,624.2424242424242,33.708333333333336,654.5454545454546,36C684.848484848485,38.291666666666664,696.969696969697,2.875,727.2727272727274,6C757.5757575757577,9.125,784.848484848485,41.625,800.0000000000001,51" transform="matrix(1,0,0,1,0,480)"></path><path d="M10,10C23.06818181818182,12.083333333333334,44.507575757575765,25.208333333333336,72.72727272727273,20C100.9469696969697,14.791666666666666,115.15151515151517,-15,145.45454545454547,-15C175.75757575757575,-15,187.87878787878788,17.916666666666668,218.1818181818182,20C248.4848484848485,22.083333333333332,260.6060606060606,-5.208333333333333,290.90909090909093,-5C321.21212121212125,-4.791666666666667,333.33333333333337,23.5,363.6363636363637,21C393.939393939394,18.5,406.06060606060606,-19.291666666666668,436.3636363636364,-17C466.6666666666667,-14.708333333333334,478.7878787878788,29.5,509.0909090909091,32C539.3939393939395,34.5,551.5151515151515,-5.833333333333333,581.8181818181819,-5C612.1212121212122,-4.166666666666667,624.2424242424242,33.708333333333336,654.5454545454546,36C684.848484848485,38.291666666666664,696.969696969697,2.875,727.2727272727274,6C757.5757575757577,9.125,784.848484848485,41.625,800.0000000000001,51" transform="matrix(1,0,0,1,0,468)"></path><path d="M10,10C23.06818181818182,12.083333333333334,44.507575757575765,25.208333333333336,72.72727272727273,20C100.9469696969697,14.791666666666666,115.15151515151517,-15,145.45454545454547,-15C175.75757575757575,-15,187.87878787878788,17.916666666666668,218.1818181818182,20C248.4848484848485,22.083333333333332,260.6060606060606,-5.208333333333333,290.90909090909093,-5C321.21212121212125,-4.791666666666667,333.33333333333337,23.5,363.6363636363637,21C393.939393939394,18.5,406.06060606060606,-19.291666666666668,436.3636363636364,-17C466.6666666666667,-14.708333333333334,478.7878787878788,29.5,509.0909090909091,32C539.3939393939395,34.5,551.5151515151515,-5.833333333333333,581.8181818181819,-5C612.1212121212122,-4.166666666666667,624.2424242424242,33.708333333333336,654.5454545454546,36C684.848484848485,38.291666666666664,696.969696969697,2.875,727.2727272727274,6C757.5757575757577,9.125,784.848484848485,41.625,800.0000000000001,51" transform="matrix(1,0,0,1,0,456)"></path><path d="M10,10C23.06818181818182,12.083333333333334,44.507575757575765,25.208333333333336,72.72727272727273,20C100.9469696969697,14.791666666666666,115.15151515151517,-15,145.45454545454547,-15C175.75757575757575,-15,187.87878787878788,17.916666666666668,218.1818181818182,20C248.4848484848485,22.083333333333332,260.6060606060606,-5.208333333333333,290.90909090909093,-5C321.21212121212125,-4.791666666666667,333.33333333333337,23.5,363.6363636363637,21C393.939393939394,18.5,406.06060606060606,-19.291666666666668,436.3636363636364,-17C466.6666666666667,-14.708333333333334,478.7878787878788,29.5,509.0909090909091,32C539.3939393939395,34.5,551.5151515151515,-5.833333333333333,581.8181818181819,-5C612.1212121212122,-4.166666666666667,624.2424242424242,33.708333333333336,654.5454545454546,36C684.848484848485,38.291666666666664,696.969696969697,2.875,727.2727272727274,6C757.5757575757577,9.125,784.848484848485,41.625,800.0000000000001,51" transform="matrix(1,0,0,1,0,444)"></path><path d="M10,10C23.06818181818182,12.083333333333334,44.507575757575765,25.208333333333336,72.72727272727273,20C100.9469696969697,14.791666666666666,115.15151515151517,-15,145.45454545454547,-15C175.75757575757575,-15,187.87878787878788,17.916666666666668,218.1818181818182,20C248.4848484848485,22.083333333333332,260.6060606060606,-5.208333333333333,290.90909090909093,-5C321.21212121212125,-4.791666666666667,333.33333333333337,23.5,363.6363636363637,21C393.939393939394,18.5,406.06060606060606,-19.291666666666668,436.3636363636364,-17C466.6666666666667,-14.708333333333334,478.7878787878788,29.5,509.0909090909091,32C539.3939393939395,34.5,551.5151515151515,-5.833333333333333,581.8181818181819,-5C612.1212121212122,-4.166666666666667,624.2424242424242,33.708333333333336,654.5454545454546,36C684.848484848485,38.291666666666664,696.969696969697,2.875,727.2727272727274,6C757.5757575757577,9.125,784.848484848485,41.625,800.0000000000001,51" transform="matrix(1,0,0,1,0,432)"></path><path d="M10,10C23.06818181818182,12.083333333333334,44.507575757575765,25.208333333333336,72.72727272727273,20C100.9469696969697,14.791666666666666,115.15151515151517,-15,145.45454545454547,-15C175.75757575757575,-15,187.87878787878788,17.916666666666668,218.1818181818182,20C248.4848484848485,22.083333333333332,260.6060606060606,-5.208333333333333,290.90909090909093,-5C321.21212121212125,-4.791666666666667,333.33333333333337,23.5,363.6363636363637,21C393.939393939394,18.5,406.06060606060606,-19.291666666666668,436.3636363636364,-17C466.6666666666667,-14.708333333333334,478.7878787878788,29.5,509.0909090909091,32C539.3939393939395,34.5,551.5151515151515,-5.833333333333333,581.8181818181819,-5C612.1212121212122,-4.166666666666667,624.2424242424242,33.708333333333336,654.5454545454546,36C684.848484848485,38.291666666666664,696.969696969697,2.875,727.2727272727274,6C757.5757575757577,9.125,784.848484848485,41.625,800.0000000000001,51" transform="matrix(1,0,0,1,0,420)"></path><path d="M10,10C23.06818181818182,12.083333333333334,44.507575757575765,25.208333333333336,72.72727272727273,20C100.9469696969697,14.791666666666666,115.15151515151517,-15,145.45454545454547,-15C175.75757575757575,-15,187.87878787878788,17.916666666666668,218.1818181818182,20C248.4848484848485,22.083333333333332,260.6060606060606,-5.208333333333333,290.90909090909093,-5C321.21212121212125,-4.791666666666667,333.33333333333337,23.5,363.6363636363637,21C393.939393939394,18.5,406.06060606060606,-19.291666666666668,436.3636363636364,-17C466.6666666666667,-14.708333333333334,478.7878787878788,29.5,509.0909090909091,32C539.3939393939395,34.5,551.5151515151515,-5.833333333333333,581.8181818181819,-5C612.1212121212122,-4.166666666666667,624.2424242424242,33.708333333333336,654.5454545454546,36C684.848484848485,38.291666666666664,696.969696969697,2.875,727.2727272727274,6C757.5757575757577,9.125,784.848484848485,41.625,800.0000000000001,51" transform="matrix(1,0,0,1,0,408)"></path><path d="M10,10C23.06818181818182,12.083333333333334,44.507575757575765,25.208333333333336,72.72727272727273,20C100.9469696969697,14.791666666666666,115.15151515151517,-15,145.45454545454547,-15C175.75757575757575,-15,187.87878787878788,17.916666666666668,218.1818181818182,20C248.4848484848485,22.083333333333332,260.6060606060606,-5.208333333333333,290.90909090909093,-5C321.21212121212125,-4.791666666666667,333.33333333333337,23.5,363.6363636363637,21C393.939393939394,18.5,406.06060606060606,-19.291666666666668,436.3636363636364,-17C466.6666666666667,-14.708333333333334,478.7878787878788,29.5,509.0909090909091,32C539.3939393939395,34.5,551.5151515151515,-5.833333333333333,581.8181818181819,-5C612.1212121212122,-4.166666666666667,624.2424242424242,33.708333333333336,654.5454545454546,36C684.848484848485,38.291666666666664,696.969696969697,2.875,727.2727272727274,6C757.5757575757577,9.125,784.848484848485,41.625,800.0000000000001,51" transform="matrix(1,0,0,1,0,396)"></path><path d="M10,10C23.06818181818182,12.083333333333334,44.507575757575765,25.208333333333336,72.72727272727273,20C100.9469696969697,14.791666666666666,115.15151515151517,-15,145.45454545454547,-15C175.75757575757575,-15,187.87878787878788,17.916666666666668,218.1818181818182,20C248.4848484848485,22.083333333333332,260.6060606060606,-5.208333333333333,290.90909090909093,-5C321.21212121212125,-4.791666666666667,333.33333333333337,23.5,363.6363636363637,21C393.939393939394,18.5,406.06060606060606,-19.291666666666668,436.3636363636364,-17C466.6666666666667,-14.708333333333334,478.7878787878788,29.5,509.0909090909091,32C539.3939393939395,34.5,551.5151515151515,-5.833333333333333,581.8181818181819,-5C612.1212121212122,-4.166666666666667,624.2424242424242,33.708333333333336,654.5454545454546,36C684.848484848485,38.291666666666664,696.969696969697,2.875,727.2727272727274,6C757.5757575757577,9.125,784.848484848485,41.625,800.0000000000001,51" transform="matrix(1,0,0,1,0,384)"></path><path d="M10,10C23.06818181818182,12.083333333333334,44.507575757575765,25.208333333333336,72.72727272727273,20C100.9469696969697,14.791666666666666,115.15151515151517,-15,145.45454545454547,-15C175.75757575757575,-15,187.87878787878788,17.916666666666668,218.1818181818182,20C248.4848484848485,22.083333333333332,260.6060606060606,-5.208333333333333,290.90909090909093,-5C321.21212121212125,-4.791666666666667,333.33333333333337,23.5,363.6363636363637,21C393.939393939394,18.5,406.06060606060606,-19.291666666666668,436.3636363636364,-17C466.6666666666667,-14.708333333333334,478.7878787878788,29.5,509.0909090909091,32C539.3939393939395,34.5,551.5151515151515,-5.833333333333333,581.8181818181819,-5C612.1212121212122,-4.166666666666667,624.2424242424242,33.708333333333336,654.5454545454546,36C684.848484848485,38.291666666666664,696.969696969697,2.875,727.2727272727274,6C757.5757575757577,9.125,784.848484848485,41.625,800.0000000000001,51" transform="matrix(1,0,0,1,0,372)"></path><path d="M10,10C23.06818181818182,12.083333333333334,44.507575757575765,25.208333333333336,72.72727272727273,20C100.9469696969697,14.791666666666666,115.15151515151517,-15,145.45454545454547,-15C175.75757575757575,-15,187.87878787878788,17.916666666666668,218.1818181818182,20C248.4848484848485,22.083333333333332,260.6060606060606,-5.208333333333333,290.90909090909093,-5C321.21212121212125,-4.791666666666667,333.33333333333337,23.5,363.6363636363637,21C393.939393939394,18.5,406.06060606060606,-19.291666666666668,436.3636363636364,-17C466.6666666666667,-14.708333333333334,478.7878787878788,29.5,509.0909090909091,32C539.3939393939395,34.5,551.5151515151515,-5.833333333333333,581.8181818181819,-5C612.1212121212122,-4.166666666666667,624.2424242424242,33.708333333333336,654.5454545454546,36C684.848484848485,38.291666666666664,696.969696969697,2.875,727.2727272727274,6C757.5757575757577,9.125,784.848484848485,41.625,800.0000000000001,51" transform="matrix(1,0,0,1,0,360)"></path><path d="M10,10C23.06818181818182,12.083333333333334,44.507575757575765,25.208333333333336,72.72727272727273,20C100.9469696969697,14.791666666666666,115.15151515151517,-15,145.45454545454547,-15C175.75757575757575,-15,187.87878787878788,17.916666666666668,218.1818181818182,20C248.4848484848485,22.083333333333332,260.6060606060606,-5.208333333333333,290.90909090909093,-5C321.21212121212125,-4.791666666666667,333.33333333333337,23.5,363.6363636363637,21C393.939393939394,18.5,406.06060606060606,-19.291666666666668,436.3636363636364,-17C466.6666666666667,-14.708333333333334,478.7878787878788,29.5,509.0909090909091,32C539.3939393939395,34.5,551.5151515151515,-5.833333333333333,581.8181818181819,-5C612.1212121212122,-4.166666666666667,624.2424242424242,33.708333333333336,654.5454545454546,36C684.848484848485,38.291666666666664,696.969696969697,2.875,727.2727272727274,6C757.5757575757577,9.125,784.848484848485,41.625,800.0000000000001,51" transform="matrix(1,0,0,1,0,348)"></path><path d="M10,10C23.06818181818182,12.083333333333334,44.507575757575765,25.208333333333336,72.72727272727273,20C100.9469696969697,14.791666666666666,115.15151515151517,-15,145.45454545454547,-15C175.75757575757575,-15,187.87878787878788,17.916666666666668,218.1818181818182,20C248.4848484848485,22.083333333333332,260.6060606060606,-5.208333333333333,290.90909090909093,-5C321.21212121212125,-4.791666666666667,333.33333333333337,23.5,363.6363636363637,21C393.939393939394,18.5,406.06060606060606,-19.291666666666668,436.3636363636364,-17C466.6666666666667,-14.708333333333334,478.7878787878788,29.5,509.0909090909091,32C539.3939393939395,34.5,551.5151515151515,-5.833333333333333,581.8181818181819,-5C612.1212121212122,-4.166666666666667,624.2424242424242,33.708333333333336,654.5454545454546,36C684.848484848485,38.291666666666664,696.969696969697,2.875,727.2727272727274,6C757.5757575757577,9.125,784.848484848485,41.625,800.0000000000001,51" transform="matrix(1,0,0,1,0,336)"></path><path d="M10,10C23.06818181818182,12.083333333333334,44.507575757575765,25.208333333333336,72.72727272727273,20C100.9469696969697,14.791666666666666,115.15151515151517,-15,145.45454545454547,-15C175.75757575757575,-15,187.87878787878788,17.916666666666668,218.1818181818182,20C248.4848484848485,22.083333333333332,260.6060606060606,-5.208333333333333,290.90909090909093,-5C321.21212121212125,-4.791666666666667,333.33333333333337,23.5,363.6363636363637,21C393.939393939394,18.5,406.06060606060606,-19.291666666666668,436.3636363636364,-17C466.6666666666667,-14.708333333333334,478.7878787878788,29.5,509.0909090909091,32C539.3939393939395,34.5,551.5151515151515,-5.833333333333333,581.8181818181819,-5C612.1212121212122,-4.166666666666667,624.2424242424242,33.708333333333336,654.5454545454546,36C684.848484848485,38.291666666666664,696.969696969697,2.875,727.2727272727274,6C757.5757575757577,9.125,784.848484848485,41.625,800.0000000000001,51" transform="matrix(1,0,0,1,0,324)"></path><path d="M10,10C23.06818181818182,12.083333333333334,44.507575757575765,25.208333333333336,72.72727272727273,20C100.9469696969697,14.791666666666666,115.15151515151517,-15,145.45454545454547,-15C175.75757575757575,-15,187.87878787878788,17.916666666666668,218.1818181818182,20C248.4848484848485,22.083333333333332,260.6060606060606,-5.208333333333333,290.90909090909093,-5C321.21212121212125,-4.791666666666667,333.33333333333337,23.5,363.6363636363637,21C393.939393939394,18.5,406.06060606060606,-19.291666666666668,436.3636363636364,-17C466.6666666666667,-14.708333333333334,478.7878787878788,29.5,509.0909090909091,32C539.3939393939395,34.5,551.5151515151515,-5.833333333333333,581.8181818181819,-5C612.1212121212122,-4.166666666666667,624.2424242424242,33.708333333333336,654.5454545454546,36C684.848484848485,38.291666666666664,696.969696969697,2.875,727.2727272727274,6C757.5757575757577,9.125,784.848484848485,41.625,800.0000000000001,51" transform="matrix(1,0,0,1,0,312)"></path><path d="M10,10C23.06818181818182,12.083333333333334,44.507575757575765,25.208333333333336,72.72727272727273,20C100.9469696969697,14.791666666666666,115.15151515151517,-15,145.45454545454547,-15C175.75757575757575,-15,187.87878787878788,17.916666666666668,218.1818181818182,20C248.4848484848485,22.083333333333332,260.6060606060606,-5.208333333333333,290.90909090909093,-5C321.21212121212125,-4.791666666666667,333.33333333333337,23.5,363.6363636363637,21C393.939393939394,18.5,406.06060606060606,-19.291666666666668,436.3636363636364,-17C466.6666666666667,-14.708333333333334,478.7878787878788,29.5,509.0909090909091,32C539.3939393939395,34.5,551.5151515151515,-5.833333333333333,581.8181818181819,-5C612.1212121212122,-4.166666666666667,624.2424242424242,33.708333333333336,654.5454545454546,36C684.848484848485,38.291666666666664,696.969696969697,2.875,727.2727272727274,6C757.5757575757577,9.125,784.848484848485,41.625,800.0000000000001,51" transform="matrix(1,0,0,1,0,300)"></path><path d="M10,10C23.06818181818182,12.083333333333334,44.507575757575765,25.208333333333336,72.72727272727273,20C100.9469696969697,14.791666666666666,115.15151515151517,-15,145.45454545454547,-15C175.75757575757575,-15,187.87878787878788,17.916666666666668,218.1818181818182,20C248.4848484848485,22.083333333333332,260.6060606060606,-5.208333333333333,290.90909090909093,-5C321.21212121212125,-4.791666666666667,333.33333333333337,23.5,363.6363636363637,21C393.939393939394,18.5,406.06060606060606,-19.291666666666668,436.3636363636364,-17C466.6666666666667,-14.708333333333334,478.7878787878788,29.5,509.0909090909091,32C539.3939393939395,34.5,551.5151515151515,-5.833333333333333,581.8181818181819,-5C612.1212121212122,-4.166666666666667,624.2424242424242,33.708333333333336,654.5454545454546,36C684.848484848485,38.291666666666664,696.969696969697,2.875,727.2727272727274,6C757.5757575757577,9.125,784.848484848485,41.625,800.0000000000001,51" transform="matrix(1,0,0,1,0,288)"></path><path d="M10,10C23.06818181818182,12.083333333333334,44.507575757575765,25.208333333333336,72.72727272727273,20C100.9469696969697,14.791666666666666,115.15151515151517,-15,145.45454545454547,-15C175.75757575757575,-15,187.87878787878788,17.916666666666668,218.1818181818182,20C248.4848484848485,22.083333333333332,260.6060606060606,-5.208333333333333,290.90909090909093,-5C321.21212121212125,-4.791666666666667,333.33333333333337,23.5,363.6363636363637,21C393.939393939394,18.5,406.06060606060606,-19.291666666666668,436.3636363636364,-17C466.6666666666667,-14.708333333333334,478.7878787878788,29.5,509.0909090909091,32C539.3939393939395,34.5,551.5151515151515,-5.833333333333333,581.8181818181819,-5C612.1212121212122,-4.166666666666667,624.2424242424242,33.708333333333336,654.5454545454546,36C684.848484848485,38.291666666666664,696.969696969697,2.875,727.2727272727274,6C757.5757575757577,9.125,784.848484848485,41.625,800.0000000000001,51" transform="matrix(1,0,0,1,0,276)"></path><path d="M10,10C23.06818181818182,12.083333333333334,44.507575757575765,25.208333333333336,72.72727272727273,20C100.9469696969697,14.791666666666666,115.15151515151517,-15,145.45454545454547,-15C175.75757575757575,-15,187.87878787878788,17.916666666666668,218.1818181818182,20C248.4848484848485,22.083333333333332,260.6060606060606,-5.208333333333333,290.90909090909093,-5C321.21212121212125,-4.791666666666667,333.33333333333337,23.5,363.6363636363637,21C393.939393939394,18.5,406.06060606060606,-19.291666666666668,436.3636363636364,-17C466.6666666666667,-14.708333333333334,478.7878787878788,29.5,509.0909090909091,32C539.3939393939395,34.5,551.5151515151515,-5.833333333333333,581.8181818181819,-5C612.1212121212122,-4.166666666666667,624.2424242424242,33.708333333333336,654.5454545454546,36C684.848484848485,38.291666666666664,696.969696969697,2.875,727.2727272727274,6C757.5757575757577,9.125,784.848484848485,41.625,800.0000000000001,51" transform="matrix(1,0,0,1,0,264)"></path><path d="M10,10C23.06818181818182,12.083333333333334,44.507575757575765,25.208333333333336,72.72727272727273,20C100.9469696969697,14.791666666666666,115.15151515151517,-15,145.45454545454547,-15C175.75757575757575,-15,187.87878787878788,17.916666666666668,218.1818181818182,20C248.4848484848485,22.083333333333332,260.6060606060606,-5.208333333333333,290.90909090909093,-5C321.21212121212125,-4.791666666666667,333.33333333333337,23.5,363.6363636363637,21C393.939393939394,18.5,406.06060606060606,-19.291666666666668,436.3636363636364,-17C466.6666666666667,-14.708333333333334,478.7878787878788,29.5,509.0909090909091,32C539.3939393939395,34.5,551.5151515151515,-5.833333333333333,581.8181818181819,-5C612.1212121212122,-4.166666666666667,624.2424242424242,33.708333333333336,654.5454545454546,36C684.848484848485,38.291666666666664,696.969696969697,2.875,727.2727272727274,6C757.5757575757577,9.125,784.848484848485,41.625,800.0000000000001,51" transform="matrix(1,0,0,1,0,252)"></path><path d="M10,10C23.06818181818182,12.083333333333334,44.507575757575765,25.208333333333336,72.72727272727273,20C100.9469696969697,14.791666666666666,115.15151515151517,-15,145.45454545454547,-15C175.75757575757575,-15,187.87878787878788,17.916666666666668,218.1818181818182,20C248.4848484848485,22.083333333333332,260.6060606060606,-5.208333333333333,290.90909090909093,-5C321.21212121212125,-4.791666666666667,333.33333333333337,23.5,363.6363636363637,21C393.939393939394,18.5,406.06060606060606,-19.291666666666668,436.3636363636364,-17C466.6666666666667,-14.708333333333334,478.7878787878788,29.5,509.0909090909091,32C539.3939393939395,34.5,551.5151515151515,-5.833333333333333,581.8181818181819,-5C612.1212121212122,-4.166666666666667,624.2424242424242,33.708333333333336,654.5454545454546,36C684.848484848485,38.291666666666664,696.969696969697,2.875,727.2727272727274,6C757.5757575757577,9.125,784.848484848485,41.625,800.0000000000001,51" transform="matrix(1,0,0,1,0,240)"></path><path d="M10,10C23.06818181818182,12.083333333333334,44.507575757575765,25.208333333333336,72.72727272727273,20C100.9469696969697,14.791666666666666,115.15151515151517,-15,145.45454545454547,-15C175.75757575757575,-15,187.87878787878788,17.916666666666668,218.1818181818182,20C248.4848484848485,22.083333333333332,260.6060606060606,-5.208333333333333,290.90909090909093,-5C321.21212121212125,-4.791666666666667,333.33333333333337,23.5,363.6363636363637,21C393.939393939394,18.5,406.06060606060606,-19.291666666666668,436.3636363636364,-17C466.6666666666667,-14.708333333333334,478.7878787878788,29.5,509.0909090909091,32C539.3939393939395,34.5,551.5151515151515,-5.833333333333333,581.8181818181819,-5C612.1212121212122,-4.166666666666667,624.2424242424242,33.708333333333336,654.5454545454546,36C684.848484848485,38.291666666666664,696.969696969697,2.875,727.2727272727274,6C757.5757575757577,9.125,784.848484848485,41.625,800.0000000000001,51" transform="matrix(1,0,0,1,0,228)"></path><path d="M10,10C23.06818181818182,12.083333333333334,44.507575757575765,25.208333333333336,72.72727272727273,20C100.9469696969697,14.791666666666666,115.15151515151517,-15,145.45454545454547,-15C175.75757575757575,-15,187.87878787878788,17.916666666666668,218.1818181818182,20C248.4848484848485,22.083333333333332,260.6060606060606,-5.208333333333333,290.90909090909093,-5C321.21212121212125,-4.791666666666667,333.33333333333337,23.5,363.6363636363637,21C393.939393939394,18.5,406.06060606060606,-19.291666666666668,436.3636363636364,-17C466.6666666666667,-14.708333333333334,478.7878787878788,29.5,509.0909090909091,32C539.3939393939395,34.5,551.5151515151515,-5.833333333333333,581.8181818181819,-5C612.1212121212122,-4.166666666666667,624.2424242424242,33.708333333333336,654.5454545454546,36C684.848484848485,38.291666666666664,696.969696969697,2.875,727.2727272727274,6C757.5757575757577,9.125,784.848484848485,41.625,800.0000000000001,51" transform="matrix(1,0,0,1,0,216)"></path><path d="M10,10C23.06818181818182,12.083333333333334,44.507575757575765,25.208333333333336,72.72727272727273,20C100.9469696969697,14.791666666666666,115.15151515151517,-15,145.45454545454547,-15C175.75757575757575,-15,187.87878787878788,17.916666666666668,218.1818181818182,20C248.4848484848485,22.083333333333332,260.6060606060606,-5.208333333333333,290.90909090909093,-5C321.21212121212125,-4.791666666666667,333.33333333333337,23.5,363.6363636363637,21C393.939393939394,18.5,406.06060606060606,-19.291666666666668,436.3636363636364,-17C466.6666666666667,-14.708333333333334,478.7878787878788,29.5,509.0909090909091,32C539.3939393939395,34.5,551.5151515151515,-5.833333333333333,581.8181818181819,-5C612.1212121212122,-4.166666666666667,624.2424242424242,33.708333333333336,654.5454545454546,36C684.848484848485,38.291666666666664,696.969696969697,2.875,727.2727272727274,6C757.5757575757577,9.125,784.848484848485,41.625,800.0000000000001,51" transform="matrix(1,0,0,1,0,204)"></path><path d="M10,10C23.06818181818182,12.083333333333334,44.507575757575765,25.208333333333336,72.72727272727273,20C100.9469696969697,14.791666666666666,115.15151515151517,-15,145.45454545454547,-15C175.75757575757575,-15,187.87878787878788,17.916666666666668,218.1818181818182,20C248.4848484848485,22.083333333333332,260.6060606060606,-5.208333333333333,290.90909090909093,-5C321.21212121212125,-4.791666666666667,333.33333333333337,23.5,363.6363636363637,21C393.939393939394,18.5,406.06060606060606,-19.291666666666668,436.3636363636364,-17C466.6666666666667,-14.708333333333334,478.7878787878788,29.5,509.0909090909091,32C539.3939393939395,34.5,551.5151515151515,-5.833333333333333,581.8181818181819,-5C612.1212121212122,-4.166666666666667,624.2424242424242,33.708333333333336,654.5454545454546,36C684.848484848485,38.291666666666664,696.969696969697,2.875,727.2727272727274,6C757.5757575757577,9.125,784.848484848485,41.625,800.0000000000001,51" transform="matrix(1,0,0,1,0,192)"></path><path d="M10,10C23.06818181818182,12.083333333333334,44.507575757575765,25.208333333333336,72.72727272727273,20C100.9469696969697,14.791666666666666,115.15151515151517,-15,145.45454545454547,-15C175.75757575757575,-15,187.87878787878788,17.916666666666668,218.1818181818182,20C248.4848484848485,22.083333333333332,260.6060606060606,-5.208333333333333,290.90909090909093,-5C321.21212121212125,-4.791666666666667,333.33333333333337,23.5,363.6363636363637,21C393.939393939394,18.5,406.06060606060606,-19.291666666666668,436.3636363636364,-17C466.6666666666667,-14.708333333333334,478.7878787878788,29.5,509.0909090909091,32C539.3939393939395,34.5,551.5151515151515,-5.833333333333333,581.8181818181819,-5C612.1212121212122,-4.166666666666667,624.2424242424242,33.708333333333336,654.5454545454546,36C684.848484848485,38.291666666666664,696.969696969697,2.875,727.2727272727274,6C757.5757575757577,9.125,784.848484848485,41.625,800.0000000000001,51" transform="matrix(1,0,0,1,0,180)"></path><path d="M10,10C23.06818181818182,12.083333333333334,44.507575757575765,25.208333333333336,72.72727272727273,20C100.9469696969697,14.791666666666666,115.15151515151517,-15,145.45454545454547,-15C175.75757575757575,-15,187.87878787878788,17.916666666666668,218.1818181818182,20C248.4848484848485,22.083333333333332,260.6060606060606,-5.208333333333333,290.90909090909093,-5C321.21212121212125,-4.791666666666667,333.33333333333337,23.5,363.6363636363637,21C393.939393939394,18.5,406.06060606060606,-19.291666666666668,436.3636363636364,-17C466.6666666666667,-14.708333333333334,478.7878787878788,29.5,509.0909090909091,32C539.3939393939395,34.5,551.5151515151515,-5.833333333333333,581.8181818181819,-5C612.1212121212122,-4.166666666666667,624.2424242424242,33.708333333333336,654.5454545454546,36C684.848484848485,38.291666666666664,696.969696969697,2.875,727.2727272727274,6C757.5757575757577,9.125,784.848484848485,41.625,800.0000000000001,51" transform="matrix(1,0,0,1,0,168)"></path><path d="M10,10C23.06818181818182,12.083333333333334,44.507575757575765,25.208333333333336,72.72727272727273,20C100.9469696969697,14.791666666666666,115.15151515151517,-15,145.45454545454547,-15C175.75757575757575,-15,187.87878787878788,17.916666666666668,218.1818181818182,20C248.4848484848485,22.083333333333332,260.6060606060606,-5.208333333333333,290.90909090909093,-5C321.21212121212125,-4.791666666666667,333.33333333333337,23.5,363.6363636363637,21C393.939393939394,18.5,406.06060606060606,-19.291666666666668,436.3636363636364,-17C466.6666666666667,-14.708333333333334,478.7878787878788,29.5,509.0909090909091,32C539.3939393939395,34.5,551.5151515151515,-5.833333333333333,581.8181818181819,-5C612.1212121212122,-4.166666666666667,624.2424242424242,33.708333333333336,654.5454545454546,36C684.848484848485,38.291666666666664,696.969696969697,2.875,727.2727272727274,6C757.5757575757577,9.125,784.848484848485,41.625,800.0000000000001,51" transform="matrix(1,0,0,1,0,156)"></path><path d="M10,10C23.06818181818182,12.083333333333334,44.507575757575765,25.208333333333336,72.72727272727273,20C100.9469696969697,14.791666666666666,115.15151515151517,-15,145.45454545454547,-15C175.75757575757575,-15,187.87878787878788,17.916666666666668,218.1818181818182,20C248.4848484848485,22.083333333333332,260.6060606060606,-5.208333333333333,290.90909090909093,-5C321.21212121212125,-4.791666666666667,333.33333333333337,23.5,363.6363636363637,21C393.939393939394,18.5,406.06060606060606,-19.291666666666668,436.3636363636364,-17C466.6666666666667,-14.708333333333334,478.7878787878788,29.5,509.0909090909091,32C539.3939393939395,34.5,551.5151515151515,-5.833333333333333,581.8181818181819,-5C612.1212121212122,-4.166666666666667,624.2424242424242,33.708333333333336,654.5454545454546,36C684.848484848485,38.291666666666664,696.969696969697,2.875,727.2727272727274,6C757.5757575757577,9.125,784.848484848485,41.625,800.0000000000001,51" transform="matrix(1,0,0,1,0,144)"></path><path d="M10,10C23.06818181818182,12.083333333333334,44.507575757575765,25.208333333333336,72.72727272727273,20C100.9469696969697,14.791666666666666,115.15151515151517,-15,145.45454545454547,-15C175.75757575757575,-15,187.87878787878788,17.916666666666668,218.1818181818182,20C248.4848484848485,22.083333333333332,260.6060606060606,-5.208333333333333,290.90909090909093,-5C321.21212121212125,-4.791666666666667,333.33333333333337,23.5,363.6363636363637,21C393.939393939394,18.5,406.06060606060606,-19.291666666666668,436.3636363636364,-17C466.6666666666667,-14.708333333333334,478.7878787878788,29.5,509.0909090909091,32C539.3939393939395,34.5,551.5151515151515,-5.833333333333333,581.8181818181819,-5C612.1212121212122,-4.166666666666667,624.2424242424242,33.708333333333336,654.5454545454546,36C684.848484848485,38.291666666666664,696.969696969697,2.875,727.2727272727274,6C757.5757575757577,9.125,784.848484848485,41.625,800.0000000000001,51" transform="matrix(1,0,0,1,0,132)"></path><path d="M10,10C23.06818181818182,12.083333333333334,44.507575757575765,25.208333333333336,72.72727272727273,20C100.9469696969697,14.791666666666666,115.15151515151517,-15,145.45454545454547,-15C175.75757575757575,-15,187.87878787878788,17.916666666666668,218.1818181818182,20C248.4848484848485,22.083333333333332,260.6060606060606,-5.208333333333333,290.90909090909093,-5C321.21212121212125,-4.791666666666667,333.33333333333337,23.5,363.6363636363637,21C393.939393939394,18.5,406.06060606060606,-19.291666666666668,436.3636363636364,-17C466.6666666666667,-14.708333333333334,478.7878787878788,29.5,509.0909090909091,32C539.3939393939395,34.5,551.5151515151515,-5.833333333333333,581.8181818181819,-5C612.1212121212122,-4.166666666666667,624.2424242424242,33.708333333333336,654.5454545454546,36C684.848484848485,38.291666666666664,696.969696969697,2.875,727.2727272727274,6C757.5757575757577,9.125,784.848484848485,41.625,800.0000000000001,51" transform="matrix(1,0,0,1,0,120)"></path><path d="M10,10C23.06818181818182,12.083333333333334,44.507575757575765,25.208333333333336,72.72727272727273,20C100.9469696969697,14.791666666666666,115.15151515151517,-15,145.45454545454547,-15C175.75757575757575,-15,187.87878787878788,17.916666666666668,218.1818181818182,20C248.4848484848485,22.083333333333332,260.6060606060606,-5.208333333333333,290.90909090909093,-5C321.21212121212125,-4.791666666666667,333.33333333333337,23.5,363.6363636363637,21C393.939393939394,18.5,406.06060606060606,-19.291666666666668,436.3636363636364,-17C466.6666666666667,-14.708333333333334,478.7878787878788,29.5,509.0909090909091,32C539.3939393939395,34.5,551.5151515151515,-5.833333333333333,581.8181818181819,-5C612.1212121212122,-4.166666666666667,624.2424242424242,33.708333333333336,654.5454545454546,36C684.848484848485,38.291666666666664,696.969696969697,2.875,727.2727272727274,6C757.5757575757577,9.125,784.848484848485,41.625,800.0000000000001,51" transform="matrix(1,0,0,1,0,108)"></path><path d="M10,10C23.06818181818182,12.083333333333334,44.507575757575765,25.208333333333336,72.72727272727273,20C100.9469696969697,14.791666666666666,115.15151515151517,-15,145.45454545454547,-15C175.75757575757575,-15,187.87878787878788,17.916666666666668,218.1818181818182,20C248.4848484848485,22.083333333333332,260.6060606060606,-5.208333333333333,290.90909090909093,-5C321.21212121212125,-4.791666666666667,333.33333333333337,23.5,363.6363636363637,21C393.939393939394,18.5,406.06060606060606,-19.291666666666668,436.3636363636364,-17C466.6666666666667,-14.708333333333334,478.7878787878788,29.5,509.0909090909091,32C539.3939393939395,34.5,551.5151515151515,-5.833333333333333,581.8181818181819,-5C612.1212121212122,-4.166666666666667,624.2424242424242,33.708333333333336,654.5454545454546,36C684.848484848485,38.291666666666664,696.969696969697,2.875,727.2727272727274,6C757.5757575757577,9.125,784.848484848485,41.625,800.0000000000001,51" transform="matrix(1,0,0,1,0,96)"></path><path d="M10,10C23.06818181818182,12.083333333333334,44.507575757575765,25.208333333333336,72.72727272727273,20C100.9469696969697,14.791666666666666,115.15151515151517,-15,145.45454545454547,-15C175.75757575757575,-15,187.87878787878788,17.916666666666668,218.1818181818182,20C248.4848484848485,22.083333333333332,260.6060606060606,-5.208333333333333,290.90909090909093,-5C321.21212121212125,-4.791666666666667,333.33333333333337,23.5,363.6363636363637,21C393.939393939394,18.5,406.06060606060606,-19.291666666666668,436.3636363636364,-17C466.6666666666667,-14.708333333333334,478.7878787878788,29.5,509.0909090909091,32C539.3939393939395,34.5,551.5151515151515,-5.833333333333333,581.8181818181819,-5C612.1212121212122,-4.166666666666667,624.2424242424242,33.708333333333336,654.5454545454546,36C684.848484848485,38.291666666666664,696.969696969697,2.875,727.2727272727274,6C757.5757575757577,9.125,784.848484848485,41.625,800.0000000000001,51" transform="matrix(1,0,0,1,0,84)"></path><path d="M10,10C23.06818181818182,12.083333333333334,44.507575757575765,25.208333333333336,72.72727272727273,20C100.9469696969697,14.791666666666666,115.15151515151517,-15,145.45454545454547,-15C175.75757575757575,-15,187.87878787878788,17.916666666666668,218.1818181818182,20C248.4848484848485,22.083333333333332,260.6060606060606,-5.208333333333333,290.90909090909093,-5C321.21212121212125,-4.791666666666667,333.33333333333337,23.5,363.6363636363637,21C393.939393939394,18.5,406.06060606060606,-19.291666666666668,436.3636363636364,-17C466.6666666666667,-14.708333333333334,478.7878787878788,29.5,509.0909090909091,32C539.3939393939395,34.5,551.5151515151515,-5.833333333333333,581.8181818181819,-5C612.1212121212122,-4.166666666666667,624.2424242424242,33.708333333333336,654.5454545454546,36C684.848484848485,38.291666666666664,696.969696969697,2.875,727.2727272727274,6C757.5757575757577,9.125,784.848484848485,41.625,800.0000000000001,51" transform="matrix(1,0,0,1,0,72)"></path><path d="M10,10C23.06818181818182,12.083333333333334,44.507575757575765,25.208333333333336,72.72727272727273,20C100.9469696969697,14.791666666666666,115.15151515151517,-15,145.45454545454547,-15C175.75757575757575,-15,187.87878787878788,17.916666666666668,218.1818181818182,20C248.4848484848485,22.083333333333332,260.6060606060606,-5.208333333333333,290.90909090909093,-5C321.21212121212125,-4.791666666666667,333.33333333333337,23.5,363.6363636363637,21C393.939393939394,18.5,406.06060606060606,-19.291666666666668,436.3636363636364,-17C466.6666666666667,-14.708333333333334,478.7878787878788,29.5,509.0909090909091,32C539.3939393939395,34.5,551.5151515151515,-5.833333333333333,581.8181818181819,-5C612.1212121212122,-4.166666666666667,624.2424242424242,33.708333333333336,654.5454545454546,36C684.848484848485,38.291666666666664,696.969696969697,2.875,727.2727272727274,6C757.5757575757577,9.125,784.848484848485,41.625,800.0000000000001,51" transform="matrix(1,0,0,1,0,60)"></path><path d="M10,10C23.06818181818182,12.083333333333334,44.507575757575765,25.208333333333336,72.72727272727273,20C100.9469696969697,14.791666666666666,115.15151515151517,-15,145.45454545454547,-15C175.75757575757575,-15,187.87878787878788,17.916666666666668,218.1818181818182,20C248.4848484848485,22.083333333333332,260.6060606060606,-5.208333333333333,290.90909090909093,-5C321.21212121212125,-4.791666666666667,333.33333333333337,23.5,363.6363636363637,21C393.939393939394,18.5,406.06060606060606,-19.291666666666668,436.3636363636364,-17C466.6666666666667,-14.708333333333334,478.7878787878788,29.5,509.0909090909091,32C539.3939393939395,34.5,551.5151515151515,-5.833333333333333,581.8181818181819,-5C612.1212121212122,-4.166666666666667,624.2424242424242,33.708333333333336,654.5454545454546,36C684.848484848485,38.291666666666664,696.969696969697,2.875,727.2727272727274,6C757.5757575757577,9.125,784.848484848485,41.625,800.0000000000001,51" transform="matrix(1,0,0,1,0,48)"></path><path d="M10,10C23.06818181818182,12.083333333333334,44.507575757575765,25.208333333333336,72.72727272727273,20C100.9469696969697,14.791666666666666,115.15151515151517,-15,145.45454545454547,-15C175.75757575757575,-15,187.87878787878788,17.916666666666668,218.1818181818182,20C248.4848484848485,22.083333333333332,260.6060606060606,-5.208333333333333,290.90909090909093,-5C321.21212121212125,-4.791666666666667,333.33333333333337,23.5,363.6363636363637,21C393.939393939394,18.5,406.06060606060606,-19.291666666666668,436.3636363636364,-17C466.6666666666667,-14.708333333333334,478.7878787878788,29.5,509.0909090909091,32C539.3939393939395,34.5,551.5151515151515,-5.833333333333333,581.8181818181819,-5C612.1212121212122,-4.166666666666667,624.2424242424242,33.708333333333336,654.5454545454546,36C684.848484848485,38.291666666666664,696.969696969697,2.875,727.2727272727274,6C757.5757575757577,9.125,784.848484848485,41.625,800.0000000000001,51" transform="matrix(1,0,0,1,0,36)"></path><path d="M10,10C23.06818181818182,12.083333333333334,44.507575757575765,25.208333333333336,72.72727272727273,20C100.9469696969697,14.791666666666666,115.15151515151517,-15,145.45454545454547,-15C175.75757575757575,-15,187.87878787878788,17.916666666666668,218.1818181818182,20C248.4848484848485,22.083333333333332,260.6060606060606,-5.208333333333333,290.90909090909093,-5C321.21212121212125,-4.791666666666667,333.33333333333337,23.5,363.6363636363637,21C393.939393939394,18.5,406.06060606060606,-19.291666666666668,436.3636363636364,-17C466.6666666666667,-14.708333333333334,478.7878787878788,29.5,509.0909090909091,32C539.3939393939395,34.5,551.5151515151515,-5.833333333333333,581.8181818181819,-5C612.1212121212122,-4.166666666666667,624.2424242424242,33.708333333333336,654.5454545454546,36C684.848484848485,38.291666666666664,696.969696969697,2.875,727.2727272727274,6C757.5757575757577,9.125,784.848484848485,41.625,800.0000000000001,51" transform="matrix(1,0,0,1,0,24)"></path><path d="M10,10C23.06818181818182,12.083333333333334,44.507575757575765,25.208333333333336,72.72727272727273,20C100.9469696969697,14.791666666666666,115.15151515151517,-15,145.45454545454547,-15C175.75757575757575,-15,187.87878787878788,17.916666666666668,218.1818181818182,20C248.4848484848485,22.083333333333332,260.6060606060606,-5.208333333333333,290.90909090909093,-5C321.21212121212125,-4.791666666666667,333.33333333333337,23.5,363.6363636363637,21C393.939393939394,18.5,406.06060606060606,-19.291666666666668,436.3636363636364,-17C466.6666666666667,-14.708333333333334,478.7878787878788,29.5,509.0909090909091,32C539.3939393939395,34.5,551.5151515151515,-5.833333333333333,581.8181818181819,-5C612.1212121212122,-4.166666666666667,624.2424242424242,33.708333333333336,654.5454545454546,36C684.848484848485,38.291666666666664,696.969696969697,2.875,727.2727272727274,6C757.5757575757577,9.125,784.848484848485,41.625,800.0000000000001,51" transform="matrix(1,0,0,1,0,12)"></path></g></svg>