<svg xmlns="http://www.w3.org/2000/svg" version="1.1" xmlns:xlink="http://www.w3.org/1999/xlink" xmlns:svgjs="http://svgjs.dev/svgjs" viewBox="0 0 800 800"><defs><linearGradient gradientTransform="rotate(270)" x1="50%" y1="0%" x2="50%" y2="100%" id="sssquiggly-grad"><stop stop-color="hsla(335, 86%, 56%, 1.00)" stop-opacity="1" offset="0%"></stop><stop stop-color="hsla(335, 40%, 80%, 1.00)" stop-opacity="1" offset="100%"></stop></linearGradient></defs><g stroke-width="2.5" stroke="url(#sssquiggly-grad)" fill="none" stroke-linecap="round" transform="matrix(1,0,0,1,-5,268.51911067962646)"><path d="M10,10C23.06818181818182,10.625,44.507575757575765,16.958333333333332,72.72727272727273,13C100.9469696969697,9.041666666666668,115.15151515151517,-13.791666666666668,145.45454545454547,-9C175.75757575757575,-4.208333333333333,187.87878787878788,36.833333333333336,218.1818181818182,36C248.4848484848485,35.166666666666664,260.6060606060606,-11.541666666666666,290.90909090909093,-13C321.21212121212125,-14.458333333333334,333.33333333333337,26.291666666666668,363.6363636363637,29C393.939393939394,31.708333333333332,406.06060606060606,-1.875,436.3636363636364,0C466.6666666666667,1.875,478.7878787878788,40.291666666666664,509.0909090909091,38C539.3939393939395,35.708333333333336,551.5151515151515,-9.75,581.8181818181819,-11C612.1212121212122,-12.25,624.2424242424242,29.916666666666668,654.5454545454546,32C684.848484848485,34.083333333333336,696.969696969697,-4.333333333333333,727.2727272727274,-1C757.5757575757577,2.333333333333333,784.848484848485,37.79166666666667,800.0000000000001,48"></path><path d="M10,10C23.06818181818182,10.625,44.507575757575765,16.958333333333332,72.72727272727273,13C100.9469696969697,9.041666666666668,115.15151515151517,-13.791666666666668,145.45454545454547,-9C175.75757575757575,-4.208333333333333,187.87878787878788,36.833333333333336,218.1818181818182,36C248.4848484848485,35.166666666666664,260.6060606060606,-11.541666666666666,290.90909090909093,-13C321.21212121212125,-14.458333333333334,333.33333333333337,26.291666666666668,363.6363636363637,29C393.939393939394,31.708333333333332,406.06060606060606,-1.875,436.3636363636364,0C466.6666666666667,1.875,478.7878787878788,40.291666666666664,509.0909090909091,38C539.3939393939395,35.708333333333336,551.5151515151515,-9.75,581.8181818181819,-11C612.1212121212122,-12.25,624.2424242424242,29.916666666666668,654.5454545454546,32C684.848484848485,34.083333333333336,696.969696969697,-4.333333333333333,727.2727272727274,-1C757.5757575757577,2.333333333333333,784.848484848485,37.79166666666667,800.0000000000001,48" transform="matrix(1,0,0,1,0,228)"></path><path d="M10,10C23.06818181818182,10.625,44.507575757575765,16.958333333333332,72.72727272727273,13C100.9469696969697,9.041666666666668,115.15151515151517,-13.791666666666668,145.45454545454547,-9C175.75757575757575,-4.208333333333333,187.87878787878788,36.833333333333336,218.1818181818182,36C248.4848484848485,35.166666666666664,260.6060606060606,-11.541666666666666,290.90909090909093,-13C321.21212121212125,-14.458333333333334,333.33333333333337,26.291666666666668,363.6363636363637,29C393.939393939394,31.708333333333332,406.06060606060606,-1.875,436.3636363636364,0C466.6666666666667,1.875,478.7878787878788,40.291666666666664,509.0909090909091,38C539.3939393939395,35.708333333333336,551.5151515151515,-9.75,581.8181818181819,-11C612.1212121212122,-12.25,624.2424242424242,29.916666666666668,654.5454545454546,32C684.848484848485,34.083333333333336,696.969696969697,-4.333333333333333,727.2727272727274,-1C757.5757575757577,2.333333333333333,784.848484848485,37.79166666666667,800.0000000000001,48" transform="matrix(1,0,0,1,0,216)"></path><path d="M10,10C23.06818181818182,10.625,44.507575757575765,16.958333333333332,72.72727272727273,13C100.9469696969697,9.041666666666668,115.15151515151517,-13.791666666666668,145.45454545454547,-9C175.75757575757575,-4.208333333333333,187.87878787878788,36.833333333333336,218.1818181818182,36C248.4848484848485,35.166666666666664,260.6060606060606,-11.541666666666666,290.90909090909093,-13C321.21212121212125,-14.458333333333334,333.33333333333337,26.291666666666668,363.6363636363637,29C393.939393939394,31.708333333333332,406.06060606060606,-1.875,436.3636363636364,0C466.6666666666667,1.875,478.7878787878788,40.291666666666664,509.0909090909091,38C539.3939393939395,35.708333333333336,551.5151515151515,-9.75,581.8181818181819,-11C612.1212121212122,-12.25,624.2424242424242,29.916666666666668,654.5454545454546,32C684.848484848485,34.083333333333336,696.969696969697,-4.333333333333333,727.2727272727274,-1C757.5757575757577,2.333333333333333,784.848484848485,37.79166666666667,800.0000000000001,48" transform="matrix(1,0,0,1,0,204)"></path><path d="M10,10C23.06818181818182,10.625,44.507575757575765,16.958333333333332,72.72727272727273,13C100.9469696969697,9.041666666666668,115.15151515151517,-13.791666666666668,145.45454545454547,-9C175.75757575757575,-4.208333333333333,187.87878787878788,36.833333333333336,218.1818181818182,36C248.4848484848485,35.166666666666664,260.6060606060606,-11.541666666666666,290.90909090909093,-13C321.21212121212125,-14.458333333333334,333.33333333333337,26.291666666666668,363.6363636363637,29C393.939393939394,31.708333333333332,406.06060606060606,-1.875,436.3636363636364,0C466.6666666666667,1.875,478.7878787878788,40.291666666666664,509.0909090909091,38C539.3939393939395,35.708333333333336,551.5151515151515,-9.75,581.8181818181819,-11C612.1212121212122,-12.25,624.2424242424242,29.916666666666668,654.5454545454546,32C684.848484848485,34.083333333333336,696.969696969697,-4.333333333333333,727.2727272727274,-1C757.5757575757577,2.333333333333333,784.848484848485,37.79166666666667,800.0000000000001,48" transform="matrix(1,0,0,1,0,192)"></path><path d="M10,10C23.06818181818182,10.625,44.507575757575765,16.958333333333332,72.72727272727273,13C100.9469696969697,9.041666666666668,115.15151515151517,-13.791666666666668,145.45454545454547,-9C175.75757575757575,-4.208333333333333,187.87878787878788,36.833333333333336,218.1818181818182,36C248.4848484848485,35.166666666666664,260.6060606060606,-11.541666666666666,290.90909090909093,-13C321.21212121212125,-14.458333333333334,333.33333333333337,26.291666666666668,363.6363636363637,29C393.939393939394,31.708333333333332,406.06060606060606,-1.875,436.3636363636364,0C466.6666666666667,1.875,478.7878787878788,40.291666666666664,509.0909090909091,38C539.3939393939395,35.708333333333336,551.5151515151515,-9.75,581.8181818181819,-11C612.1212121212122,-12.25,624.2424242424242,29.916666666666668,654.5454545454546,32C684.848484848485,34.083333333333336,696.969696969697,-4.333333333333333,727.2727272727274,-1C757.5757575757577,2.333333333333333,784.848484848485,37.79166666666667,800.0000000000001,48" transform="matrix(1,0,0,1,0,180)"></path><path d="M10,10C23.06818181818182,10.625,44.507575757575765,16.958333333333332,72.72727272727273,13C100.9469696969697,9.041666666666668,115.15151515151517,-13.791666666666668,145.45454545454547,-9C175.75757575757575,-4.208333333333333,187.87878787878788,36.833333333333336,218.1818181818182,36C248.4848484848485,35.166666666666664,260.6060606060606,-11.541666666666666,290.90909090909093,-13C321.21212121212125,-14.458333333333334,333.33333333333337,26.291666666666668,363.6363636363637,29C393.939393939394,31.708333333333332,406.06060606060606,-1.875,436.3636363636364,0C466.6666666666667,1.875,478.7878787878788,40.291666666666664,509.0909090909091,38C539.3939393939395,35.708333333333336,551.5151515151515,-9.75,581.8181818181819,-11C612.1212121212122,-12.25,624.2424242424242,29.916666666666668,654.5454545454546,32C684.848484848485,34.083333333333336,696.969696969697,-4.333333333333333,727.2727272727274,-1C757.5757575757577,2.333333333333333,784.848484848485,37.79166666666667,800.0000000000001,48" transform="matrix(1,0,0,1,0,168)"></path><path d="M10,10C23.06818181818182,10.625,44.507575757575765,16.958333333333332,72.72727272727273,13C100.9469696969697,9.041666666666668,115.15151515151517,-13.791666666666668,145.45454545454547,-9C175.75757575757575,-4.208333333333333,187.87878787878788,36.833333333333336,218.1818181818182,36C248.4848484848485,35.166666666666664,260.6060606060606,-11.541666666666666,290.90909090909093,-13C321.21212121212125,-14.458333333333334,333.33333333333337,26.291666666666668,363.6363636363637,29C393.939393939394,31.708333333333332,406.06060606060606,-1.875,436.3636363636364,0C466.6666666666667,1.875,478.7878787878788,40.291666666666664,509.0909090909091,38C539.3939393939395,35.708333333333336,551.5151515151515,-9.75,581.8181818181819,-11C612.1212121212122,-12.25,624.2424242424242,29.916666666666668,654.5454545454546,32C684.848484848485,34.083333333333336,696.969696969697,-4.333333333333333,727.2727272727274,-1C757.5757575757577,2.333333333333333,784.848484848485,37.79166666666667,800.0000000000001,48" transform="matrix(1,0,0,1,0,156)"></path><path d="M10,10C23.06818181818182,10.625,44.507575757575765,16.958333333333332,72.72727272727273,13C100.9469696969697,9.041666666666668,115.15151515151517,-13.791666666666668,145.45454545454547,-9C175.75757575757575,-4.208333333333333,187.87878787878788,36.833333333333336,218.1818181818182,36C248.4848484848485,35.166666666666664,260.6060606060606,-11.541666666666666,290.90909090909093,-13C321.21212121212125,-14.458333333333334,333.33333333333337,26.291666666666668,363.6363636363637,29C393.939393939394,31.708333333333332,406.06060606060606,-1.875,436.3636363636364,0C466.6666666666667,1.875,478.7878787878788,40.291666666666664,509.0909090909091,38C539.3939393939395,35.708333333333336,551.5151515151515,-9.75,581.8181818181819,-11C612.1212121212122,-12.25,624.2424242424242,29.916666666666668,654.5454545454546,32C684.848484848485,34.083333333333336,696.969696969697,-4.333333333333333,727.2727272727274,-1C757.5757575757577,2.333333333333333,784.848484848485,37.79166666666667,800.0000000000001,48" transform="matrix(1,0,0,1,0,144)"></path><path d="M10,10C23.06818181818182,10.625,44.507575757575765,16.958333333333332,72.72727272727273,13C100.9469696969697,9.041666666666668,115.15151515151517,-13.791666666666668,145.45454545454547,-9C175.75757575757575,-4.208333333333333,187.87878787878788,36.833333333333336,218.1818181818182,36C248.4848484848485,35.166666666666664,260.6060606060606,-11.541666666666666,290.90909090909093,-13C321.21212121212125,-14.458333333333334,333.33333333333337,26.291666666666668,363.6363636363637,29C393.939393939394,31.708333333333332,406.06060606060606,-1.875,436.3636363636364,0C466.6666666666667,1.875,478.7878787878788,40.291666666666664,509.0909090909091,38C539.3939393939395,35.708333333333336,551.5151515151515,-9.75,581.8181818181819,-11C612.1212121212122,-12.25,624.2424242424242,29.916666666666668,654.5454545454546,32C684.848484848485,34.083333333333336,696.969696969697,-4.333333333333333,727.2727272727274,-1C757.5757575757577,2.333333333333333,784.848484848485,37.79166666666667,800.0000000000001,48" transform="matrix(1,0,0,1,0,132)"></path><path d="M10,10C23.06818181818182,10.625,44.507575757575765,16.958333333333332,72.72727272727273,13C100.9469696969697,9.041666666666668,115.15151515151517,-13.791666666666668,145.45454545454547,-9C175.75757575757575,-4.208333333333333,187.87878787878788,36.833333333333336,218.1818181818182,36C248.4848484848485,35.166666666666664,260.6060606060606,-11.541666666666666,290.90909090909093,-13C321.21212121212125,-14.458333333333334,333.33333333333337,26.291666666666668,363.6363636363637,29C393.939393939394,31.708333333333332,406.06060606060606,-1.875,436.3636363636364,0C466.6666666666667,1.875,478.7878787878788,40.291666666666664,509.0909090909091,38C539.3939393939395,35.708333333333336,551.5151515151515,-9.75,581.8181818181819,-11C612.1212121212122,-12.25,624.2424242424242,29.916666666666668,654.5454545454546,32C684.848484848485,34.083333333333336,696.969696969697,-4.333333333333333,727.2727272727274,-1C757.5757575757577,2.333333333333333,784.848484848485,37.79166666666667,800.0000000000001,48" transform="matrix(1,0,0,1,0,120)"></path><path d="M10,10C23.06818181818182,10.625,44.507575757575765,16.958333333333332,72.72727272727273,13C100.9469696969697,9.041666666666668,115.15151515151517,-13.791666666666668,145.45454545454547,-9C175.75757575757575,-4.208333333333333,187.87878787878788,36.833333333333336,218.1818181818182,36C248.4848484848485,35.166666666666664,260.6060606060606,-11.541666666666666,290.90909090909093,-13C321.21212121212125,-14.458333333333334,333.33333333333337,26.291666666666668,363.6363636363637,29C393.939393939394,31.708333333333332,406.06060606060606,-1.875,436.3636363636364,0C466.6666666666667,1.875,478.7878787878788,40.291666666666664,509.0909090909091,38C539.3939393939395,35.708333333333336,551.5151515151515,-9.75,581.8181818181819,-11C612.1212121212122,-12.25,624.2424242424242,29.916666666666668,654.5454545454546,32C684.848484848485,34.083333333333336,696.969696969697,-4.333333333333333,727.2727272727274,-1C757.5757575757577,2.333333333333333,784.848484848485,37.79166666666667,800.0000000000001,48" transform="matrix(1,0,0,1,0,108)"></path><path d="M10,10C23.06818181818182,10.625,44.507575757575765,16.958333333333332,72.72727272727273,13C100.9469696969697,9.041666666666668,115.15151515151517,-13.791666666666668,145.45454545454547,-9C175.75757575757575,-4.208333333333333,187.87878787878788,36.833333333333336,218.1818181818182,36C248.4848484848485,35.166666666666664,260.6060606060606,-11.541666666666666,290.90909090909093,-13C321.21212121212125,-14.458333333333334,333.33333333333337,26.291666666666668,363.6363636363637,29C393.939393939394,31.708333333333332,406.06060606060606,-1.875,436.3636363636364,0C466.6666666666667,1.875,478.7878787878788,40.291666666666664,509.0909090909091,38C539.3939393939395,35.708333333333336,551.5151515151515,-9.75,581.8181818181819,-11C612.1212121212122,-12.25,624.2424242424242,29.916666666666668,654.5454545454546,32C684.848484848485,34.083333333333336,696.969696969697,-4.333333333333333,727.2727272727274,-1C757.5757575757577,2.333333333333333,784.848484848485,37.79166666666667,800.0000000000001,48" transform="matrix(1,0,0,1,0,96)"></path><path d="M10,10C23.06818181818182,10.625,44.507575757575765,16.958333333333332,72.72727272727273,13C100.9469696969697,9.041666666666668,115.15151515151517,-13.791666666666668,145.45454545454547,-9C175.75757575757575,-4.208333333333333,187.87878787878788,36.833333333333336,218.1818181818182,36C248.4848484848485,35.166666666666664,260.6060606060606,-11.541666666666666,290.90909090909093,-13C321.21212121212125,-14.458333333333334,333.33333333333337,26.291666666666668,363.6363636363637,29C393.939393939394,31.708333333333332,406.06060606060606,-1.875,436.3636363636364,0C466.6666666666667,1.875,478.7878787878788,40.291666666666664,509.0909090909091,38C539.3939393939395,35.708333333333336,551.5151515151515,-9.75,581.8181818181819,-11C612.1212121212122,-12.25,624.2424242424242,29.916666666666668,654.5454545454546,32C684.848484848485,34.083333333333336,696.969696969697,-4.333333333333333,727.2727272727274,-1C757.5757575757577,2.333333333333333,784.848484848485,37.79166666666667,800.0000000000001,48" transform="matrix(1,0,0,1,0,84)"></path><path d="M10,10C23.06818181818182,10.625,44.507575757575765,16.958333333333332,72.72727272727273,13C100.9469696969697,9.041666666666668,115.15151515151517,-13.791666666666668,145.45454545454547,-9C175.75757575757575,-4.208333333333333,187.87878787878788,36.833333333333336,218.1818181818182,36C248.4848484848485,35.166666666666664,260.6060606060606,-11.541666666666666,290.90909090909093,-13C321.21212121212125,-14.458333333333334,333.33333333333337,26.291666666666668,363.6363636363637,29C393.939393939394,31.708333333333332,406.06060606060606,-1.875,436.3636363636364,0C466.6666666666667,1.875,478.7878787878788,40.291666666666664,509.0909090909091,38C539.3939393939395,35.708333333333336,551.5151515151515,-9.75,581.8181818181819,-11C612.1212121212122,-12.25,624.2424242424242,29.916666666666668,654.5454545454546,32C684.848484848485,34.083333333333336,696.969696969697,-4.333333333333333,727.2727272727274,-1C757.5757575757577,2.333333333333333,784.848484848485,37.79166666666667,800.0000000000001,48" transform="matrix(1,0,0,1,0,72)"></path><path d="M10,10C23.06818181818182,10.625,44.507575757575765,16.958333333333332,72.72727272727273,13C100.9469696969697,9.041666666666668,115.15151515151517,-13.791666666666668,145.45454545454547,-9C175.75757575757575,-4.208333333333333,187.87878787878788,36.833333333333336,218.1818181818182,36C248.4848484848485,35.166666666666664,260.6060606060606,-11.541666666666666,290.90909090909093,-13C321.21212121212125,-14.458333333333334,333.33333333333337,26.291666666666668,363.6363636363637,29C393.939393939394,31.708333333333332,406.06060606060606,-1.875,436.3636363636364,0C466.6666666666667,1.875,478.7878787878788,40.291666666666664,509.0909090909091,38C539.3939393939395,35.708333333333336,551.5151515151515,-9.75,581.8181818181819,-11C612.1212121212122,-12.25,624.2424242424242,29.916666666666668,654.5454545454546,32C684.848484848485,34.083333333333336,696.969696969697,-4.333333333333333,727.2727272727274,-1C757.5757575757577,2.333333333333333,784.848484848485,37.79166666666667,800.0000000000001,48" transform="matrix(1,0,0,1,0,60)"></path><path d="M10,10C23.06818181818182,10.625,44.507575757575765,16.958333333333332,72.72727272727273,13C100.9469696969697,9.041666666666668,115.15151515151517,-13.791666666666668,145.45454545454547,-9C175.75757575757575,-4.208333333333333,187.87878787878788,36.833333333333336,218.1818181818182,36C248.4848484848485,35.166666666666664,260.6060606060606,-11.541666666666666,290.90909090909093,-13C321.21212121212125,-14.458333333333334,333.33333333333337,26.291666666666668,363.6363636363637,29C393.939393939394,31.708333333333332,406.06060606060606,-1.875,436.3636363636364,0C466.6666666666667,1.875,478.7878787878788,40.291666666666664,509.0909090909091,38C539.3939393939395,35.708333333333336,551.5151515151515,-9.75,581.8181818181819,-11C612.1212121212122,-12.25,624.2424242424242,29.916666666666668,654.5454545454546,32C684.848484848485,34.083333333333336,696.969696969697,-4.333333333333333,727.2727272727274,-1C757.5757575757577,2.333333333333333,784.848484848485,37.79166666666667,800.0000000000001,48" transform="matrix(1,0,0,1,0,48)"></path><path d="M10,10C23.06818181818182,10.625,44.507575757575765,16.958333333333332,72.72727272727273,13C100.9469696969697,9.041666666666668,115.15151515151517,-13.791666666666668,145.45454545454547,-9C175.75757575757575,-4.208333333333333,187.87878787878788,36.833333333333336,218.1818181818182,36C248.4848484848485,35.166666666666664,260.6060606060606,-11.541666666666666,290.90909090909093,-13C321.21212121212125,-14.458333333333334,333.33333333333337,26.291666666666668,363.6363636363637,29C393.939393939394,31.708333333333332,406.06060606060606,-1.875,436.3636363636364,0C466.6666666666667,1.875,478.7878787878788,40.291666666666664,509.0909090909091,38C539.3939393939395,35.708333333333336,551.5151515151515,-9.75,581.8181818181819,-11C612.1212121212122,-12.25,624.2424242424242,29.916666666666668,654.5454545454546,32C684.848484848485,34.083333333333336,696.969696969697,-4.333333333333333,727.2727272727274,-1C757.5757575757577,2.333333333333333,784.848484848485,37.79166666666667,800.0000000000001,48" transform="matrix(1,0,0,1,0,36)"></path><path d="M10,10C23.06818181818182,10.625,44.507575757575765,16.958333333333332,72.72727272727273,13C100.9469696969697,9.041666666666668,115.15151515151517,-13.791666666666668,145.45454545454547,-9C175.75757575757575,-4.208333333333333,187.87878787878788,36.833333333333336,218.1818181818182,36C248.4848484848485,35.166666666666664,260.6060606060606,-11.541666666666666,290.90909090909093,-13C321.21212121212125,-14.458333333333334,333.33333333333337,26.291666666666668,363.6363636363637,29C393.939393939394,31.708333333333332,406.06060606060606,-1.875,436.3636363636364,0C466.6666666666667,1.875,478.7878787878788,40.291666666666664,509.0909090909091,38C539.3939393939395,35.708333333333336,551.5151515151515,-9.75,581.8181818181819,-11C612.1212121212122,-12.25,624.2424242424242,29.916666666666668,654.5454545454546,32C684.848484848485,34.083333333333336,696.969696969697,-4.333333333333333,727.2727272727274,-1C757.5757575757577,2.333333333333333,784.848484848485,37.79166666666667,800.0000000000001,48" transform="matrix(1,0,0,1,0,24)"></path><path d="M10,10C23.06818181818182,10.625,44.507575757575765,16.958333333333332,72.72727272727273,13C100.9469696969697,9.041666666666668,115.15151515151517,-13.791666666666668,145.45454545454547,-9C175.75757575757575,-4.208333333333333,187.87878787878788,36.833333333333336,218.1818181818182,36C248.4848484848485,35.166666666666664,260.6060606060606,-11.541666666666666,290.90909090909093,-13C321.21212121212125,-14.458333333333334,333.33333333333337,26.291666666666668,363.6363636363637,29C393.939393939394,31.708333333333332,406.06060606060606,-1.875,436.3636363636364,0C466.6666666666667,1.875,478.7878787878788,40.291666666666664,509.0909090909091,38C539.3939393939395,35.708333333333336,551.5151515151515,-9.75,581.8181818181819,-11C612.1212121212122,-12.25,624.2424242424242,29.916666666666668,654.5454545454546,32C684.848484848485,34.083333333333336,696.969696969697,-4.333333333333333,727.2727272727274,-1C757.5757575757577,2.333333333333333,784.848484848485,37.79166666666667,800.0000000000001,48" transform="matrix(1,0,0,1,0,12)"></path></g></svg>