<svg xmlns="http://www.w3.org/2000/svg" version="1.1" xmlns:xlink="http://www.w3.org/1999/xlink" xmlns:svgjs="http://svgjs.dev/svgjs" viewBox="0 0 800 800"><defs><linearGradient gradientTransform="rotate(270)" x1="50%" y1="0%" x2="50%" y2="100%" id="sssquiggly-grad"><stop stop-color="hsla(335, 86%, 56%, 1.00)" stop-opacity="1" offset="0%"></stop><stop stop-color="hsla(335, 40%, 80%, 1.00)" stop-opacity="1" offset="100%"></stop></linearGradient></defs><g strokeWidth="2.5" stroke="url(#sssquiggly-grad)" fill="none" strokeLinecap="round" transform="matrix(1,0,0,1,-5,272.51092529296875)"><path d="M10,10C23.06818181818182,11.666666666666666,44.507575757575765,23,72.72727272727273,18C100.9469696969697,13,115.15151515151517,-16.916666666666668,145.45454545454547,-14C175.75757575757575,-11.083333333333332,187.87878787878788,33.458333333333336,218.1818181818182,32C248.4848484848485,30.541666666666668,260.6060606060606,-22.25,290.90909090909093,-21C321.21212121212125,-19.75,333.33333333333337,36.125,363.6363636363637,38C393.939393939394,39.875,406.06060606060606,-11.375,436.3636363636364,-12C466.6666666666667,-12.625,478.7878787878788,34.791666666666664,509.0909090909091,35C539.3939393939395,35.208333333333336,551.5151515151515,-12.041666666666666,581.8181818181819,-11C612.1212121212122,-9.958333333333334,624.2424242424242,36.25,654.5454545454546,40C684.848484848485,43.75,696.969696969697,5.333333333333334,727.2727272727274,7C757.5757575757577,8.666666666666666,784.848484848485,39.458333333333336,800.0000000000001,48"></path><path d="M10,10C23.06818181818182,11.666666666666666,44.507575757575765,23,72.72727272727273,18C100.9469696969697,13,115.15151515151517,-16.916666666666668,145.45454545454547,-14C175.75757575757575,-11.083333333333332,187.87878787878788,33.458333333333336,218.1818181818182,32C248.4848484848485,30.541666666666668,260.6060606060606,-22.25,290.90909090909093,-21C321.21212121212125,-19.75,333.33333333333337,36.125,363.6363636363637,38C393.939393939394,39.875,406.06060606060606,-11.375,436.3636363636364,-12C466.6666666666667,-12.625,478.7878787878788,34.791666666666664,509.0909090909091,35C539.3939393939395,35.208333333333336,551.5151515151515,-12.041666666666666,581.8181818181819,-11C612.1212121212122,-9.958333333333334,624.2424242424242,36.25,654.5454545454546,40C684.848484848485,43.75,696.969696969697,5.333333333333334,727.2727272727274,7C757.5757575757577,8.666666666666666,784.848484848485,39.458333333333336,800.0000000000001,48" transform="matrix(1,0,0,1,0,228)"></path><path d="M10,10C23.06818181818182,11.666666666666666,44.507575757575765,23,72.72727272727273,18C100.9469696969697,13,115.15151515151517,-16.916666666666668,145.45454545454547,-14C175.75757575757575,-11.083333333333332,187.87878787878788,33.458333333333336,218.1818181818182,32C248.4848484848485,30.541666666666668,260.6060606060606,-22.25,290.90909090909093,-21C321.21212121212125,-19.75,333.33333333333337,36.125,363.6363636363637,38C393.939393939394,39.875,406.06060606060606,-11.375,436.3636363636364,-12C466.6666666666667,-12.625,478.7878787878788,34.791666666666664,509.0909090909091,35C539.3939393939395,35.208333333333336,551.5151515151515,-12.041666666666666,581.8181818181819,-11C612.1212121212122,-9.958333333333334,624.2424242424242,36.25,654.5454545454546,40C684.848484848485,43.75,696.969696969697,5.333333333333334,727.2727272727274,7C757.5757575757577,8.666666666666666,784.848484848485,39.458333333333336,800.0000000000001,48" transform="matrix(1,0,0,1,0,216)"></path><path d="M10,10C23.06818181818182,11.666666666666666,44.507575757575765,23,72.72727272727273,18C100.9469696969697,13,115.15151515151517,-16.916666666666668,145.45454545454547,-14C175.75757575757575,-11.083333333333332,187.87878787878788,33.458333333333336,218.1818181818182,32C248.4848484848485,30.541666666666668,260.6060606060606,-22.25,290.90909090909093,-21C321.21212121212125,-19.75,333.33333333333337,36.125,363.6363636363637,38C393.939393939394,39.875,406.06060606060606,-11.375,436.3636363636364,-12C466.6666666666667,-12.625,478.7878787878788,34.791666666666664,509.0909090909091,35C539.3939393939395,35.208333333333336,551.5151515151515,-12.041666666666666,581.8181818181819,-11C612.1212121212122,-9.958333333333334,624.2424242424242,36.25,654.5454545454546,40C684.848484848485,43.75,696.969696969697,5.333333333333334,727.2727272727274,7C757.5757575757577,8.666666666666666,784.848484848485,39.458333333333336,800.0000000000001,48" transform="matrix(1,0,0,1,0,204)"></path><path d="M10,10C23.06818181818182,11.666666666666666,44.507575757575765,23,72.72727272727273,18C100.9469696969697,13,115.15151515151517,-16.916666666666668,145.45454545454547,-14C175.75757575757575,-11.083333333333332,187.87878787878788,33.458333333333336,218.1818181818182,32C248.4848484848485,30.541666666666668,260.6060606060606,-22.25,290.90909090909093,-21C321.21212121212125,-19.75,333.33333333333337,36.125,363.6363636363637,38C393.939393939394,39.875,406.06060606060606,-11.375,436.3636363636364,-12C466.6666666666667,-12.625,478.7878787878788,34.791666666666664,509.0909090909091,35C539.3939393939395,35.208333333333336,551.5151515151515,-12.041666666666666,581.8181818181819,-11C612.1212121212122,-9.958333333333334,624.2424242424242,36.25,654.5454545454546,40C684.848484848485,43.75,696.969696969697,5.333333333333334,727.2727272727274,7C757.5757575757577,8.666666666666666,784.848484848485,39.458333333333336,800.0000000000001,48" transform="matrix(1,0,0,1,0,192)"></path><path d="M10,10C23.06818181818182,11.666666666666666,44.507575757575765,23,72.72727272727273,18C100.9469696969697,13,115.15151515151517,-16.916666666666668,145.45454545454547,-14C175.75757575757575,-11.083333333333332,187.87878787878788,33.458333333333336,218.1818181818182,32C248.4848484848485,30.541666666666668,260.6060606060606,-22.25,290.90909090909093,-21C321.21212121212125,-19.75,333.33333333333337,36.125,363.6363636363637,38C393.939393939394,39.875,406.06060606060606,-11.375,436.3636363636364,-12C466.6666666666667,-12.625,478.7878787878788,34.791666666666664,509.0909090909091,35C539.3939393939395,35.208333333333336,551.5151515151515,-12.041666666666666,581.8181818181819,-11C612.1212121212122,-9.958333333333334,624.2424242424242,36.25,654.5454545454546,40C684.848484848485,43.75,696.969696969697,5.333333333333334,727.2727272727274,7C757.5757575757577,8.666666666666666,784.848484848485,39.458333333333336,800.0000000000001,48" transform="matrix(1,0,0,1,0,180)"></path><path d="M10,10C23.06818181818182,11.666666666666666,44.507575757575765,23,72.72727272727273,18C100.9469696969697,13,115.15151515151517,-16.916666666666668,145.45454545454547,-14C175.75757575757575,-11.083333333333332,187.87878787878788,33.458333333333336,218.1818181818182,32C248.4848484848485,30.541666666666668,260.6060606060606,-22.25,290.90909090909093,-21C321.21212121212125,-19.75,333.33333333333337,36.125,363.6363636363637,38C393.939393939394,39.875,406.06060606060606,-11.375,436.3636363636364,-12C466.6666666666667,-12.625,478.7878787878788,34.791666666666664,509.0909090909091,35C539.3939393939395,35.208333333333336,551.5151515151515,-12.041666666666666,581.8181818181819,-11C612.1212121212122,-9.958333333333334,624.2424242424242,36.25,654.5454545454546,40C684.848484848485,43.75,696.969696969697,5.333333333333334,727.2727272727274,7C757.5757575757577,8.666666666666666,784.848484848485,39.458333333333336,800.0000000000001,48" transform="matrix(1,0,0,1,0,168)"></path><path d="M10,10C23.06818181818182,11.666666666666666,44.507575757575765,23,72.72727272727273,18C100.9469696969697,13,115.15151515151517,-16.916666666666668,145.45454545454547,-14C175.75757575757575,-11.083333333333332,187.87878787878788,33.458333333333336,218.1818181818182,32C248.4848484848485,30.541666666666668,260.6060606060606,-22.25,290.90909090909093,-21C321.21212121212125,-19.75,333.33333333333337,36.125,363.6363636363637,38C393.939393939394,39.875,406.06060606060606,-11.375,436.3636363636364,-12C466.6666666666667,-12.625,478.7878787878788,34.791666666666664,509.0909090909091,35C539.3939393939395,35.208333333333336,551.5151515151515,-12.041666666666666,581.8181818181819,-11C612.1212121212122,-9.958333333333334,624.2424242424242,36.25,654.5454545454546,40C684.848484848485,43.75,696.969696969697,5.333333333333334,727.2727272727274,7C757.5757575757577,8.666666666666666,784.848484848485,39.458333333333336,800.0000000000001,48" transform="matrix(1,0,0,1,0,156)"></path><path d="M10,10C23.06818181818182,11.666666666666666,44.507575757575765,23,72.72727272727273,18C100.9469696969697,13,115.15151515151517,-16.916666666666668,145.45454545454547,-14C175.75757575757575,-11.083333333333332,187.87878787878788,33.458333333333336,218.1818181818182,32C248.4848484848485,30.541666666666668,260.6060606060606,-22.25,290.90909090909093,-21C321.21212121212125,-19.75,333.33333333333337,36.125,363.6363636363637,38C393.939393939394,39.875,406.06060606060606,-11.375,436.3636363636364,-12C466.6666666666667,-12.625,478.7878787878788,34.791666666666664,509.0909090909091,35C539.3939393939395,35.208333333333336,551.5151515151515,-12.041666666666666,581.8181818181819,-11C612.1212121212122,-9.958333333333334,624.2424242424242,36.25,654.5454545454546,40C684.848484848485,43.75,696.969696969697,5.333333333333334,727.2727272727274,7C757.5757575757577,8.666666666666666,784.848484848485,39.458333333333336,800.0000000000001,48" transform="matrix(1,0,0,1,0,144)"></path><path d="M10,10C23.06818181818182,11.666666666666666,44.507575757575765,23,72.72727272727273,18C100.9469696969697,13,115.15151515151517,-16.916666666666668,145.45454545454547,-14C175.75757575757575,-11.083333333333332,187.87878787878788,33.458333333333336,218.1818181818182,32C248.4848484848485,30.541666666666668,260.6060606060606,-22.25,290.90909090909093,-21C321.21212121212125,-19.75,333.33333333333337,36.125,363.6363636363637,38C393.939393939394,39.875,406.06060606060606,-11.375,436.3636363636364,-12C466.6666666666667,-12.625,478.7878787878788,34.791666666666664,509.0909090909091,35C539.3939393939395,35.208333333333336,551.5151515151515,-12.041666666666666,581.8181818181819,-11C612.1212121212122,-9.958333333333334,624.2424242424242,36.25,654.5454545454546,40C684.848484848485,43.75,696.969696969697,5.333333333333334,727.2727272727274,7C757.5757575757577,8.666666666666666,784.848484848485,39.458333333333336,800.0000000000001,48" transform="matrix(1,0,0,1,0,132)"></path><path d="M10,10C23.06818181818182,11.666666666666666,44.507575757575765,23,72.72727272727273,18C100.9469696969697,13,115.15151515151517,-16.916666666666668,145.45454545454547,-14C175.75757575757575,-11.083333333333332,187.87878787878788,33.458333333333336,218.1818181818182,32C248.4848484848485,30.541666666666668,260.6060606060606,-22.25,290.90909090909093,-21C321.21212121212125,-19.75,333.33333333333337,36.125,363.6363636363637,38C393.939393939394,39.875,406.06060606060606,-11.375,436.3636363636364,-12C466.6666666666667,-12.625,478.7878787878788,34.791666666666664,509.0909090909091,35C539.3939393939395,35.208333333333336,551.5151515151515,-12.041666666666666,581.8181818181819,-11C612.1212121212122,-9.958333333333334,624.2424242424242,36.25,654.5454545454546,40C684.848484848485,43.75,696.969696969697,5.333333333333334,727.2727272727274,7C757.5757575757577,8.666666666666666,784.848484848485,39.458333333333336,800.0000000000001,48" transform="matrix(1,0,0,1,0,120)"></path><path d="M10,10C23.06818181818182,11.666666666666666,44.507575757575765,23,72.72727272727273,18C100.9469696969697,13,115.15151515151517,-16.916666666666668,145.45454545454547,-14C175.75757575757575,-11.083333333333332,187.87878787878788,33.458333333333336,218.1818181818182,32C248.4848484848485,30.541666666666668,260.6060606060606,-22.25,290.90909090909093,-21C321.21212121212125,-19.75,333.33333333333337,36.125,363.6363636363637,38C393.939393939394,39.875,406.06060606060606,-11.375,436.3636363636364,-12C466.6666666666667,-12.625,478.7878787878788,34.791666666666664,509.0909090909091,35C539.3939393939395,35.208333333333336,551.5151515151515,-12.041666666666666,581.8181818181819,-11C612.1212121212122,-9.958333333333334,624.2424242424242,36.25,654.5454545454546,40C684.848484848485,43.75,696.969696969697,5.333333333333334,727.2727272727274,7C757.5757575757577,8.666666666666666,784.848484848485,39.458333333333336,800.0000000000001,48" transform="matrix(1,0,0,1,0,108)"></path><path d="M10,10C23.06818181818182,11.666666666666666,44.507575757575765,23,72.72727272727273,18C100.9469696969697,13,115.15151515151517,-16.916666666666668,145.45454545454547,-14C175.75757575757575,-11.083333333333332,187.87878787878788,33.458333333333336,218.1818181818182,32C248.4848484848485,30.541666666666668,260.6060606060606,-22.25,290.90909090909093,-21C321.21212121212125,-19.75,333.33333333333337,36.125,363.6363636363637,38C393.939393939394,39.875,406.06060606060606,-11.375,436.3636363636364,-12C466.6666666666667,-12.625,478.7878787878788,34.791666666666664,509.0909090909091,35C539.3939393939395,35.208333333333336,551.5151515151515,-12.041666666666666,581.8181818181819,-11C612.1212121212122,-9.958333333333334,624.2424242424242,36.25,654.5454545454546,40C684.848484848485,43.75,696.969696969697,5.333333333333334,727.2727272727274,7C757.5757575757577,8.666666666666666,784.848484848485,39.458333333333336,800.0000000000001,48" transform="matrix(1,0,0,1,0,96)"></path><path d="M10,10C23.06818181818182,11.666666666666666,44.507575757575765,23,72.72727272727273,18C100.9469696969697,13,115.15151515151517,-16.916666666666668,145.45454545454547,-14C175.75757575757575,-11.083333333333332,187.87878787878788,33.458333333333336,218.1818181818182,32C248.4848484848485,30.541666666666668,260.6060606060606,-22.25,290.90909090909093,-21C321.21212121212125,-19.75,333.33333333333337,36.125,363.6363636363637,38C393.939393939394,39.875,406.06060606060606,-11.375,436.3636363636364,-12C466.6666666666667,-12.625,478.7878787878788,34.791666666666664,509.0909090909091,35C539.3939393939395,35.208333333333336,551.5151515151515,-12.041666666666666,581.8181818181819,-11C612.1212121212122,-9.958333333333334,624.2424242424242,36.25,654.5454545454546,40C684.848484848485,43.75,696.969696969697,5.333333333333334,727.2727272727274,7C757.5757575757577,8.666666666666666,784.848484848485,39.458333333333336,800.0000000000001,48" transform="matrix(1,0,0,1,0,84)"></path><path d="M10,10C23.06818181818182,11.666666666666666,44.507575757575765,23,72.72727272727273,18C100.9469696969697,13,115.15151515151517,-16.916666666666668,145.45454545454547,-14C175.75757575757575,-11.083333333333332,187.87878787878788,33.458333333333336,218.1818181818182,32C248.4848484848485,30.541666666666668,260.6060606060606,-22.25,290.90909090909093,-21C321.21212121212125,-19.75,333.33333333333337,36.125,363.6363636363637,38C393.939393939394,39.875,406.06060606060606,-11.375,436.3636363636364,-12C466.6666666666667,-12.625,478.7878787878788,34.791666666666664,509.0909090909091,35C539.3939393939395,35.208333333333336,551.5151515151515,-12.041666666666666,581.8181818181819,-11C612.1212121212122,-9.958333333333334,624.2424242424242,36.25,654.5454545454546,40C684.848484848485,43.75,696.969696969697,5.333333333333334,727.2727272727274,7C757.5757575757577,8.666666666666666,784.848484848485,39.458333333333336,800.0000000000001,48" transform="matrix(1,0,0,1,0,72)"></path><path d="M10,10C23.06818181818182,11.666666666666666,44.507575757575765,23,72.72727272727273,18C100.9469696969697,13,115.15151515151517,-16.916666666666668,145.45454545454547,-14C175.75757575757575,-11.083333333333332,187.87878787878788,33.458333333333336,218.1818181818182,32C248.4848484848485,30.541666666666668,260.6060606060606,-22.25,290.90909090909093,-21C321.21212121212125,-19.75,333.33333333333337,36.125,363.6363636363637,38C393.939393939394,39.875,406.06060606060606,-11.375,436.3636363636364,-12C466.6666666666667,-12.625,478.7878787878788,34.791666666666664,509.0909090909091,35C539.3939393939395,35.208333333333336,551.5151515151515,-12.041666666666666,581.8181818181819,-11C612.1212121212122,-9.958333333333334,624.2424242424242,36.25,654.5454545454546,40C684.848484848485,43.75,696.969696969697,5.333333333333334,727.2727272727274,7C757.5757575757577,8.666666666666666,784.848484848485,39.458333333333336,800.0000000000001,48" transform="matrix(1,0,0,1,0,60)"></path><path d="M10,10C23.06818181818182,11.666666666666666,44.507575757575765,23,72.72727272727273,18C100.9469696969697,13,115.15151515151517,-16.916666666666668,145.45454545454547,-14C175.75757575757575,-11.083333333333332,187.87878787878788,33.458333333333336,218.1818181818182,32C248.4848484848485,30.541666666666668,260.6060606060606,-22.25,290.90909090909093,-21C321.21212121212125,-19.75,333.33333333333337,36.125,363.6363636363637,38C393.939393939394,39.875,406.06060606060606,-11.375,436.3636363636364,-12C466.6666666666667,-12.625,478.7878787878788,34.791666666666664,509.0909090909091,35C539.3939393939395,35.208333333333336,551.5151515151515,-12.041666666666666,581.8181818181819,-11C612.1212121212122,-9.958333333333334,624.2424242424242,36.25,654.5454545454546,40C684.848484848485,43.75,696.969696969697,5.333333333333334,727.2727272727274,7C757.5757575757577,8.666666666666666,784.848484848485,39.458333333333336,800.0000000000001,48" transform="matrix(1,0,0,1,0,48)"></path><path d="M10,10C23.06818181818182,11.666666666666666,44.507575757575765,23,72.72727272727273,18C100.9469696969697,13,115.15151515151517,-16.916666666666668,145.45454545454547,-14C175.75757575757575,-11.083333333333332,187.87878787878788,33.458333333333336,218.1818181818182,32C248.4848484848485,30.541666666666668,260.6060606060606,-22.25,290.90909090909093,-21C321.21212121212125,-19.75,333.33333333333337,36.125,363.6363636363637,38C393.939393939394,39.875,406.06060606060606,-11.375,436.3636363636364,-12C466.6666666666667,-12.625,478.7878787878788,34.791666666666664,509.0909090909091,35C539.3939393939395,35.208333333333336,551.5151515151515,-12.041666666666666,581.8181818181819,-11C612.1212121212122,-9.958333333333334,624.2424242424242,36.25,654.5454545454546,40C684.848484848485,43.75,696.969696969697,5.333333333333334,727.2727272727274,7C757.5757575757577,8.666666666666666,784.848484848485,39.458333333333336,800.0000000000001,48" transform="matrix(1,0,0,1,0,36)"></path><path d="M10,10C23.06818181818182,11.666666666666666,44.507575757575765,23,72.72727272727273,18C100.9469696969697,13,115.15151515151517,-16.916666666666668,145.45454545454547,-14C175.75757575757575,-11.083333333333332,187.87878787878788,33.458333333333336,218.1818181818182,32C248.4848484848485,30.541666666666668,260.6060606060606,-22.25,290.90909090909093,-21C321.21212121212125,-19.75,333.33333333333337,36.125,363.6363636363637,38C393.939393939394,39.875,406.06060606060606,-11.375,436.3636363636364,-12C466.6666666666667,-12.625,478.7878787878788,34.791666666666664,509.0909090909091,35C539.3939393939395,35.208333333333336,551.5151515151515,-12.041666666666666,581.8181818181819,-11C612.1212121212122,-9.958333333333334,624.2424242424242,36.25,654.5454545454546,40C684.848484848485,43.75,696.969696969697,5.333333333333334,727.2727272727274,7C757.5757575757577,8.666666666666666,784.848484848485,39.458333333333336,800.0000000000001,48" transform="matrix(1,0,0,1,0,24)"></path><path d="M10,10C23.06818181818182,11.666666666666666,44.507575757575765,23,72.72727272727273,18C100.9469696969697,13,115.15151515151517,-16.916666666666668,145.45454545454547,-14C175.75757575757575,-11.083333333333332,187.87878787878788,33.458333333333336,218.1818181818182,32C248.4848484848485,30.541666666666668,260.6060606060606,-22.25,290.90909090909093,-21C321.21212121212125,-19.75,333.33333333333337,36.125,363.6363636363637,38C393.939393939394,39.875,406.06060606060606,-11.375,436.3636363636364,-12C466.6666666666667,-12.625,478.7878787878788,34.791666666666664,509.0909090909091,35C539.3939393939395,35.208333333333336,551.5151515151515,-12.041666666666666,581.8181818181819,-11C612.1212121212122,-9.958333333333334,624.2424242424242,36.25,654.5454545454546,40C684.848484848485,43.75,696.969696969697,5.333333333333334,727.2727272727274,7C757.5757575757577,8.666666666666666,784.848484848485,39.458333333333336,800.0000000000001,48" transform="matrix(1,0,0,1,0,12)"></path></g></svg>